<ttFont>
    <TTGlyph name=".notdef" xMin="50" yMin="-250" xMax="450" yMax="750">
      <contour>
        <pt x="50" y="-250" on="1"/>
        <pt x="450" y="-250" on="1"/>
        <pt x="450" y="750" on="1"/>
        <pt x="50" y="750" on="1"/>
      </contour>
      <contour>
        <pt x="100" y="-200" on="1"/>
        <pt x="100" y="700" on="1"/>
        <pt x="400" y="700" on="1"/>
        <pt x="400" y="-200" on="1"/>
      </contour>
    </TTGlyph>
    <TTGlyph name="Euro" xMin="49" yMin="-36" xMax="498" yMax="643">
      <contour>
        <pt x="49" y="207" on="1"/>
        <pt x="64" y="263" on="1"/>
        <pt x="137" y="263" on="1"/>
        <pt x="133" y="288" on="0"/>
        <pt x="133" y="313" on="1"/>
        <pt x="133" y="330" on="0"/>
        <pt x="135" y="346" on="1"/>
        <pt x="73" y="346" on="1"/>
        <pt x="87" y="402" on="1"/>
        <pt x="145" y="402" on="1"/>
        <pt x="163" y="468" on="0"/>
        <pt x="254" y="577" on="0"/>
        <pt x="399" y="643" on="0"/>
        <pt x="498" y="643" on="1"/>
        <pt x="498" y="587" on="1"/>
        <pt x="416" y="587" on="0"/>
        <pt x="297" y="537" on="0"/>
        <pt x="221" y="452" on="0"/>
        <pt x="203" y="402" on="1"/>
        <pt x="448" y="402" on="1"/>
        <pt x="434" y="346" on="1"/>
        <pt x="191" y="346" on="1"/>
        <pt x="189" y="330" on="0"/>
        <pt x="189" y="313" on="1"/>
        <pt x="189" y="288" on="0"/>
        <pt x="194" y="263" on="1"/>
        <pt x="425" y="263" on="1"/>
        <pt x="410" y="207" on="1"/>
        <pt x="210" y="207" on="1"/>
        <pt x="229" y="158" on="0"/>
        <pt x="304" y="74" on="0"/>
        <pt x="420" y="21" on="0"/>
        <pt x="498" y="20" on="1"/>
        <pt x="498" y="-36" on="1"/>
        <pt x="402" y="-36" on="0"/>
        <pt x="260" y="32" on="0"/>
        <pt x="170" y="143" on="0"/>
        <pt x="150" y="207" on="1"/>
      </contour>
    </TTGlyph>
    <TTGlyph name="arrowboth" xMin="25" yMin="78" xMax="702" yMax="482">
      <contour>
        <pt x="228" y="78" on="1"/>
        <pt x="25" y="279" on="1"/>
        <pt x="228" y="482" on="1"/>
        <pt x="268" y="442" on="1"/>
        <pt x="132" y="307" on="1"/>
        <pt x="596" y="307" on="1"/>
        <pt x="461" y="442" on="1"/>
        <pt x="500" y="482" on="1"/>
        <pt x="675" y="307" on="1"/>
        <pt x="675" y="307" on="1"/>
        <pt x="675" y="307" on="1"/>
        <pt x="702" y="280" on="1"/>
        <pt x="675" y="253" on="1"/>
        <pt x="675" y="251" on="1"/>
        <pt x="674" y="251" on="1"/>
        <pt x="499" y="78" on="1"/>
        <pt x="459" y="117" on="1"/>
        <pt x="595" y="251" on="1"/>
        <pt x="132" y="251" on="1"/>
        <pt x="267" y="117" on="1"/>
      </contour>
    </TTGlyph>
    <TTGlyph name="arrowdown" xMin="82" yMin="-29" xMax="548" yMax="556">
      <contour>
        <pt x="315" y="-29" on="1"/>
        <pt x="82" y="205" on="1"/>
        <pt x="121" y="245" on="1"/>
        <pt x="286" y="79" on="1"/>
        <pt x="286" y="556" on="1"/>
        <pt x="342" y="556" on="1"/>
        <pt x="342" y="76" on="1"/>
        <pt x="508" y="243" on="1"/>
        <pt x="548" y="204" on="1"/>
      </contour>
    </TTGlyph>
    <TTGlyph name="arrowleft" xMin="22" yMin="54" xMax="605" yMax="520">
      <contour>
        <pt x="256" y="54" on="1"/>
        <pt x="22" y="286" on="1"/>
        <pt x="256" y="520" on="1"/>
        <pt x="296" y="480" on="1"/>
        <pt x="129" y="314" on="1"/>
        <pt x="605" y="314" on="1"/>
        <pt x="605" y="259" on="1"/>
        <pt x="129" y="259" on="1"/>
        <pt x="295" y="94" on="1"/>
      </contour>
    </TTGlyph>
    <TTGlyph name="arrowright" xMin="34" yMin="54" xMax="617" yMax="520">
      <contour>
        <pt x="34" y="259" on="1"/>
        <pt x="34" y="314" on="1"/>
        <pt x="511" y="314" on="1"/>
        <pt x="344" y="480" on="1"/>
        <pt x="383" y="520" on="1"/>
        <pt x="617" y="288" on="1"/>
        <pt x="382" y="54" on="1"/>
        <pt x="343" y="94" on="1"/>
        <pt x="509" y="259" on="1"/>
      </contour>
    </TTGlyph>
    <TTGlyph name="arrowup" xMin="82" yMin="0" xMax="548" yMax="582">
      <contour>
        <pt x="287" y="0" on="1"/>
        <pt x="287" y="476" on="1"/>
        <pt x="121" y="310" on="1"/>
        <pt x="82" y="349" on="1"/>
        <pt x="314" y="582" on="1"/>
        <pt x="548" y="348" on="1"/>
        <pt x="508" y="309" on="1"/>
        <pt x="342" y="475" on="1"/>
        <pt x="342" y="0" on="1"/>
      </contour>
    </TTGlyph>
    <TTGlyph name="arrowupdn" xMin="113" yMin="-49" xMax="517" yMax="588">
      <contour>
        <pt x="315" y="-49" on="1"/>
        <pt x="113" y="154" on="1"/>
        <pt x="152" y="194" on="1"/>
        <pt x="287" y="58" on="1"/>
        <pt x="287" y="482" on="1"/>
        <pt x="152" y="346" on="1"/>
        <pt x="113" y="385" on="1"/>
        <pt x="314" y="588" on="1"/>
        <pt x="517" y="385" on="1"/>
        <pt x="477" y="345" on="1"/>
        <pt x="343" y="480" on="1"/>
        <pt x="343" y="57" on="1"/>
        <pt x="477" y="193" on="1"/>
        <pt x="517" y="153" on="1"/>
      </contour>
    </TTGlyph>
    <TTGlyph name="asciicircum" xMin="69" yMin="341" xMax="423" yMax="603">
      <contour>
        <pt x="69" y="341" on="1"/>
        <pt x="220" y="603" on="1"/>
        <pt x="267" y="603" on="1"/>
        <pt x="423" y="341" on="1"/>
        <pt x="367" y="341" on="1"/>
        <pt x="244" y="551" on="1"/>
        <pt x="125" y="341" on="1"/>
      </contour>
    </TTGlyph>
    <TTGlyph name="asterisk" xMin="53" yMin="317" xMax="385" yMax="670">
      <contour>
        <pt x="232" y="473" on="1"/>
        <pt x="245" y="317" on="1"/>
        <pt x="193" y="317" on="1"/>
        <pt x="206" y="473" on="1"/>
        <pt x="79" y="385" on="1"/>
        <pt x="54" y="430" on="1"/>
        <pt x="192" y="495" on="1"/>
        <pt x="53" y="562" on="1"/>
        <pt x="79" y="606" on="1"/>
        <pt x="206" y="518" on="1"/>
        <pt x="193" y="670" on="1"/>
        <pt x="245" y="670" on="1"/>
        <pt x="232" y="518" on="1"/>
        <pt x="359" y="605" on="1"/>
        <pt x="384" y="561" on="1"/>
        <pt x="245" y="495" on="1"/>
        <pt x="385" y="430" on="1"/>
        <pt x="358" y="385" on="1"/>
      </contour>
    </TTGlyph>
    <TTGlyph name="backslash" xMin="126" yMin="-185" xMax="342" yMax="730">
      <contour>
        <pt x="342" y="-185" on="1"/>
        <pt x="143" y="477" on="1"/>
        <pt x="126" y="730" on="1"/>
        <pt x="325" y="68" on="1"/>
      </contour>
    </TTGlyph>
    <TTGlyph name="bar" xMin="66" yMin="36" xMax="121" yMax="464">
      <contour>
        <pt x="66" y="464" on="1"/>
        <pt x="121" y="464" on="1"/>
        <pt x="121" y="36" on="1"/>
        <pt x="66" y="36" on="1"/>
      </contour>
    </TTGlyph>
    <TTGlyph name="braceleft" xMin="35" yMin="-231" xMax="351" yMax="731">
      <contour>
        <pt x="340" y="-231" on="1"/>
        <pt x="261" y="-231" on="0"/>
        <pt x="170" y="-189" on="0"/>
        <pt x="130" y="-94" on="0"/>
        <pt x="130" y="-13" on="1"/>
        <pt x="130" y="107" on="1"/>
        <pt x="130" y="152" on="0"/>
        <pt x="118" y="202" on="0"/>
        <pt x="77" y="221" on="0"/>
        <pt x="35" y="221" on="1"/>
        <pt x="35" y="276" on="1"/>
        <pt x="77" y="276" on="0"/>
        <pt x="118" y="295" on="0"/>
        <pt x="130" y="344" on="0"/>
        <pt x="130" y="387" on="1"/>
        <pt x="130" y="513" on="1"/>
        <pt x="130" y="594" on="0"/>
        <pt x="170" y="689" on="0"/>
        <pt x="261" y="731" on="0"/>
        <pt x="340" y="731" on="1"/>
        <pt x="351" y="731" on="1"/>
        <pt x="351" y="678" on="1"/>
        <pt x="285" y="678" on="0"/>
        <pt x="214" y="649" on="0"/>
        <pt x="188" y="577" on="0"/>
        <pt x="188" y="512" on="1"/>
        <pt x="188" y="387" on="1"/>
        <pt x="188" y="327" on="0"/>
        <pt x="160" y="261" on="0"/>
        <pt x="122" y="248" on="1"/>
        <pt x="161" y="235" on="0"/>
        <pt x="188" y="168" on="0"/>
        <pt x="188" y="108" on="1"/>
        <pt x="188" y="-12" on="1"/>
        <pt x="188" y="-77" on="0"/>
        <pt x="215" y="-149" on="0"/>
        <pt x="286" y="-178" on="0"/>
        <pt x="351" y="-178" on="1"/>
        <pt x="351" y="-231" on="1"/>
      </contour>
    </TTGlyph>
    <TTGlyph name="braceright" xMin="50" yMin="-231" xMax="366" yMax="731">
      <contour>
        <pt x="50" y="-231" on="1"/>
        <pt x="50" y="-177" on="1"/>
        <pt x="115" y="-177" on="0"/>
        <pt x="186" y="-149" on="0"/>
        <pt x="213" y="-77" on="0"/>
        <pt x="213" y="-12" on="1"/>
        <pt x="213" y="108" on="1"/>
        <pt x="213" y="168" on="0"/>
        <pt x="239" y="235" on="0"/>
        <pt x="279" y="248" on="1"/>
        <pt x="240" y="261" on="0"/>
        <pt x="213" y="327" on="0"/>
        <pt x="213" y="387" on="1"/>
        <pt x="213" y="512" on="1"/>
        <pt x="213" y="577" on="0"/>
        <pt x="186" y="649" on="0"/>
        <pt x="115" y="677" on="0"/>
        <pt x="50" y="677" on="1"/>
        <pt x="50" y="731" on="1"/>
        <pt x="61" y="731" on="1"/>
        <pt x="140" y="731" on="0"/>
        <pt x="231" y="689" on="0"/>
        <pt x="270" y="594" on="0"/>
        <pt x="270" y="513" on="1"/>
        <pt x="270" y="387" on="1"/>
        <pt x="270" y="344" on="0"/>
        <pt x="283" y="295" on="0"/>
        <pt x="323" y="276" on="0"/>
        <pt x="366" y="276" on="1"/>
        <pt x="366" y="221" on="1"/>
        <pt x="323" y="221" on="0"/>
        <pt x="283" y="202" on="0"/>
        <pt x="270" y="152" on="0"/>
        <pt x="270" y="107" on="1"/>
        <pt x="270" y="-13" on="1"/>
        <pt x="270" y="-94" on="0"/>
        <pt x="231" y="-189" on="0"/>
        <pt x="140" y="-231" on="0"/>
        <pt x="61" y="-231" on="1"/>
      </contour>
    </TTGlyph>
    <TTGlyph name="bracketleft" xMin="57" yMin="-231" xMax="243" yMax="731">
      <contour>
        <pt x="57" y="-231" on="1"/>
        <pt x="57" y="731" on="1"/>
        <pt x="243" y="731" on="1"/>
        <pt x="243" y="676" on="1"/>
        <pt x="115" y="676" on="1"/>
        <pt x="115" y="-176" on="1"/>
        <pt x="243" y="-176" on="1"/>
        <pt x="243" y="-231" on="1"/>
      </contour>
    </TTGlyph>
    <TTGlyph name="bracketright" xMin="50" yMin="-231" xMax="236" yMax="731">
      <contour>
        <pt x="50" y="-231" on="1"/>
        <pt x="50" y="-177" on="1"/>
        <pt x="178" y="-177" on="1"/>
        <pt x="178" y="676" on="1"/>
        <pt x="50" y="676" on="1"/>
        <pt x="50" y="731" on="1"/>
        <pt x="236" y="731" on="1"/>
        <pt x="236" y="-231" on="1"/>
      </contour>
    </TTGlyph>
    <TTGlyph name="bullet" xMin="57" yMin="183" xMax="239" yMax="366">
      <contour>
        <pt x="148" y="183" on="1"/>
        <pt x="110" y="183" on="0"/>
        <pt x="57" y="236" on="0"/>
        <pt x="57" y="274" on="1"/>
        <pt x="57" y="312" on="0"/>
        <pt x="109" y="366" on="0"/>
        <pt x="148" y="366" on="1"/>
        <pt x="186" y="366" on="0"/>
        <pt x="239" y="312" on="0"/>
        <pt x="239" y="274" on="1"/>
        <pt x="239" y="236" on="0"/>
        <pt x="185" y="183" on="0"/>
      </contour>
    </TTGlyph>
    <TTGlyph name="colon" xMin="52" yMin="-8" xMax="147" yMax="454">
      <contour>
        <pt x="99" y="359" on="1"/>
        <pt x="78" y="359" on="0"/>
        <pt x="52" y="386" on="0"/>
        <pt x="52" y="407" on="1"/>
        <pt x="52" y="427" on="0"/>
        <pt x="79" y="454" on="0"/>
        <pt x="99" y="454" on="1"/>
        <pt x="120" y="454" on="0"/>
        <pt x="147" y="427" on="0"/>
        <pt x="147" y="407" on="1"/>
        <pt x="147" y="386" on="0"/>
        <pt x="120" y="359" on="0"/>
      </contour>
      <contour>
        <pt x="99" y="-8" on="1"/>
        <pt x="78" y="-8" on="0"/>
        <pt x="52" y="19" on="0"/>
        <pt x="52" y="40" on="1"/>
        <pt x="52" y="60" on="0"/>
        <pt x="79" y="87" on="0"/>
        <pt x="99" y="87" on="1"/>
        <pt x="120" y="87" on="0"/>
        <pt x="147" y="60" on="0"/>
        <pt x="147" y="40" on="1"/>
        <pt x="147" y="19" on="0"/>
        <pt x="120" y="-8" on="0"/>
      </contour>
    </TTGlyph>
    <TTGlyph name="comma" xMin="33" yMin="-117" xMax="141" yMax="87">
      <contour>
        <pt x="33" y="-117" on="1"/>
        <pt x="76" y="87" on="1"/>
        <pt x="141" y="87" on="1"/>
        <pt x="80" y="-117" on="1"/>
      </contour>
    </TTGlyph>
    <TTGlyph name="copyright" xMin="56" yMin="-83" xMax="794" yMax="653">
      <contour>
        <pt x="424" y="-83" on="1"/>
        <pt x="348" y="-83" on="0"/>
        <pt x="215" y="-25" on="0"/>
        <pt x="114" y="76" on="0"/>
        <pt x="56" y="209" on="0"/>
        <pt x="56" y="285" on="1"/>
        <pt x="56" y="361" on="0"/>
        <pt x="114" y="494" on="0"/>
        <pt x="215" y="595" on="0"/>
        <pt x="348" y="653" on="0"/>
        <pt x="424" y="653" on="1"/>
        <pt x="500" y="653" on="0"/>
        <pt x="634" y="595" on="0"/>
        <pt x="736" y="494" on="0"/>
        <pt x="794" y="361" on="0"/>
        <pt x="794" y="285" on="1"/>
        <pt x="794" y="209" on="0"/>
        <pt x="736" y="76" on="0"/>
        <pt x="634" y="-25" on="0"/>
        <pt x="500" y="-83" on="0"/>
      </contour>
      <contour>
        <pt x="424" y="-31" on="1"/>
        <pt x="490" y="-31" on="0"/>
        <pt x="604" y="18" on="0"/>
        <pt x="690" y="106" on="0"/>
        <pt x="738" y="220" on="0"/>
        <pt x="738" y="285" on="1"/>
        <pt x="738" y="350" on="0"/>
        <pt x="690" y="464" on="0"/>
        <pt x="604" y="552" on="0"/>
        <pt x="490" y="601" on="0"/>
        <pt x="424" y="601" on="1"/>
        <pt x="358" y="601" on="0"/>
        <pt x="245" y="552" on="0"/>
        <pt x="160" y="464" on="0"/>
        <pt x="112" y="350" on="0"/>
        <pt x="112" y="285" on="1"/>
        <pt x="112" y="220" on="0"/>
        <pt x="160" y="106" on="0"/>
        <pt x="245" y="18" on="0"/>
        <pt x="358" y="-31" on="0"/>
      </contour>
      <contour>
        <pt x="428" y="85" on="1"/>
        <pt x="371" y="85" on="0"/>
        <pt x="280" y="139" on="0"/>
        <pt x="227" y="229" on="0"/>
        <pt x="227" y="285" on="1"/>
        <pt x="227" y="340" on="0"/>
        <pt x="280" y="431" on="0"/>
        <pt x="371" y="485" on="0"/>
        <pt x="428" y="485" on="1"/>
        <pt x="484" y="485" on="0"/>
        <pt x="578" y="429" on="0"/>
        <pt x="602" y="384" on="1"/>
        <pt x="553" y="355" on="1"/>
        <pt x="537" y="388" on="0"/>
        <pt x="469" y="431" on="0"/>
        <pt x="427" y="431" on="1"/>
        <pt x="387" y="431" on="0"/>
        <pt x="321" y="392" on="0"/>
        <pt x="281" y="326" on="0"/>
        <pt x="281" y="285" on="1"/>
        <pt x="281" y="244" on="0"/>
        <pt x="321" y="178" on="0"/>
        <pt x="387" y="139" on="0"/>
        <pt x="427" y="139" on="1"/>
        <pt x="471" y="139" on="0"/>
        <pt x="540" y="185" on="0"/>
        <pt x="556" y="220" on="1"/>
        <pt x="605" y="193" on="1"/>
        <pt x="581" y="145" on="0"/>
        <pt x="486" y="85" on="0"/>
      </contour>
    </TTGlyph>
    <TTGlyph name="degree" xMin="83" yMin="437" xMax="332" yMax="686">
      <contour>
        <pt x="208" y="437" on="1"/>
        <pt x="173" y="437" on="0"/>
        <pt x="116" y="471" on="0"/>
        <pt x="83" y="528" on="0"/>
        <pt x="83" y="562" on="1"/>
        <pt x="83" y="596" on="0"/>
        <pt x="117" y="653" on="0"/>
        <pt x="173" y="686" on="0"/>
        <pt x="208" y="686" on="1"/>
        <pt x="242" y="686" on="0"/>
        <pt x="299" y="653" on="0"/>
        <pt x="332" y="596" on="0"/>
        <pt x="332" y="562" on="1"/>
        <pt x="332" y="528" on="0"/>
        <pt x="298" y="471" on="0"/>
        <pt x="242" y="437" on="0"/>
      </contour>
      <contour>
        <pt x="208" y="486" on="1"/>
        <pt x="239" y="486" on="0"/>
        <pt x="283" y="530" on="0"/>
        <pt x="283" y="561" on="1"/>
        <pt x="283" y="592" on="0"/>
        <pt x="239" y="637" on="0"/>
        <pt x="208" y="637" on="1"/>
        <pt x="177" y="637" on="0"/>
        <pt x="132" y="592" on="0"/>
        <pt x="132" y="561" on="1"/>
        <pt x="132" y="530" on="0"/>
        <pt x="177" y="486" on="0"/>
      </contour>
    </TTGlyph>
    <TTGlyph name="divide" xMin="60" yMin="86" xMax="428" yMax="486">
      <contour>
        <pt x="243" y="401" on="1"/>
        <pt x="225" y="401" on="0"/>
        <pt x="201" y="426" on="0"/>
        <pt x="201" y="444" on="1"/>
        <pt x="201" y="462" on="0"/>
        <pt x="225" y="486" on="0"/>
        <pt x="243" y="486" on="1"/>
        <pt x="262" y="486" on="0"/>
        <pt x="286" y="462" on="0"/>
        <pt x="286" y="444" on="1"/>
        <pt x="286" y="426" on="0"/>
        <pt x="262" y="401" on="0"/>
      </contour>
      <contour>
        <pt x="60" y="261" on="1"/>
        <pt x="60" y="310" on="1"/>
        <pt x="428" y="310" on="1"/>
        <pt x="428" y="261" on="1"/>
      </contour>
      <contour>
        <pt x="243" y="86" on="1"/>
        <pt x="225" y="86" on="0"/>
        <pt x="201" y="111" on="0"/>
        <pt x="201" y="129" on="1"/>
        <pt x="201" y="147" on="0"/>
        <pt x="225" y="171" on="0"/>
        <pt x="243" y="171" on="1"/>
        <pt x="262" y="171" on="0"/>
        <pt x="286" y="147" on="0"/>
        <pt x="286" y="129" on="1"/>
        <pt x="286" y="111" on="0"/>
        <pt x="262" y="86" on="0"/>
      </contour>
    </TTGlyph>
    <TTGlyph name="dollar" xMin="72" yMin="-102" xMax="525" yMax="730">
      <contour>
        <pt x="280" y="-102" on="1"/>
        <pt x="280" y="-8" on="1"/>
        <pt x="209" y="-2" on="0"/>
        <pt x="112" y="56" on="0"/>
        <pt x="72" y="100" on="1"/>
        <pt x="116" y="141" on="1"/>
        <pt x="149" y="102" on="0"/>
        <pt x="224" y="51" on="0"/>
        <pt x="280" y="45" on="1"/>
        <pt x="280" y="301" on="1"/>
        <pt x="232" y="320" on="0"/>
        <pt x="144" y="366" on="0"/>
        <pt x="88" y="431" on="0"/>
        <pt x="88" y="480" on="1"/>
        <pt x="88" y="518" on="0"/>
        <pt x="131" y="590" on="0"/>
        <pt x="216" y="638" on="0"/>
        <pt x="280" y="642" on="1"/>
        <pt x="280" y="730" on="1"/>
        <pt x="337" y="730" on="1"/>
        <pt x="337" y="641" on="1"/>
        <pt x="400" y="634" on="0"/>
        <pt x="484" y="578" on="0"/>
        <pt x="517" y="540" on="1"/>
        <pt x="470" y="505" on="1"/>
        <pt x="446" y="535" on="0"/>
        <pt x="384" y="580" on="0"/>
        <pt x="337" y="587" on="1"/>
        <pt x="337" y="345" on="1"/>
        <pt x="384" y="326" on="0"/>
        <pt x="470" y="278" on="0"/>
        <pt x="524" y="207" on="0"/>
        <pt x="524" y="154" on="1"/>
        <pt x="525" y="115" on="0"/>
        <pt x="480" y="45" on="0"/>
        <pt x="397" y="-3" on="0"/>
        <pt x="337" y="-8" on="1"/>
        <pt x="337" y="-102" on="1"/>
      </contour>
      <contour>
        <pt x="146" y="480" on="1"/>
        <pt x="146" y="452" on="0"/>
        <pt x="183" y="412" on="0"/>
        <pt x="243" y="381" on="0"/>
        <pt x="280" y="367" on="1"/>
        <pt x="280" y="588" on="1"/>
        <pt x="235" y="585" on="0"/>
        <pt x="176" y="550" on="0"/>
        <pt x="146" y="502" on="0"/>
      </contour>
      <contour>
        <pt x="465" y="154" on="1"/>
        <pt x="465" y="200" on="0"/>
        <pt x="390" y="256" on="0"/>
        <pt x="337" y="278" on="1"/>
        <pt x="337" y="45" on="1"/>
        <pt x="399" y="52" on="0"/>
        <pt x="465" y="116" on="0"/>
      </contour>
    </TTGlyph>
    <TTGlyph name="eight" xMin="57" yMin="-12" xMax="470" yMax="613">
      <contour>
        <pt x="264" y="-12" on="1"/>
        <pt x="168" y="-12" on="0"/>
        <pt x="57" y="92" on="0"/>
        <pt x="57" y="176" on="1"/>
        <pt x="57" y="215" on="0"/>
        <pt x="91" y="283" on="0"/>
        <pt x="148" y="329" on="0"/>
        <pt x="182" y="336" on="1"/>
        <pt x="158" y="344" on="0"/>
        <pt x="119" y="385" on="0"/>
        <pt x="95" y="439" on="0"/>
        <pt x="95" y="466" on="1"/>
        <pt x="95" y="505" on="0"/>
        <pt x="141" y="572" on="0"/>
        <pt x="217" y="613" on="0"/>
        <pt x="264" y="613" on="1"/>
        <pt x="310" y="613" on="0"/>
        <pt x="387" y="572" on="0"/>
        <pt x="432" y="505" on="0"/>
        <pt x="432" y="466" on="1"/>
        <pt x="432" y="439" on="0"/>
        <pt x="409" y="385" on="0"/>
        <pt x="369" y="344" on="0"/>
        <pt x="345" y="336" on="1"/>
        <pt x="380" y="329" on="0"/>
        <pt x="436" y="283" on="0"/>
        <pt x="470" y="215" on="0"/>
        <pt x="470" y="176" on="1"/>
        <pt x="470" y="92" on="0"/>
        <pt x="359" y="-12" on="0"/>
      </contour>
      <contour>
        <pt x="264" y="361" on="1"/>
        <pt x="314" y="361" on="0"/>
        <pt x="377" y="422" on="0"/>
        <pt x="377" y="466" on="1"/>
        <pt x="377" y="490" on="0"/>
        <pt x="346" y="532" on="0"/>
        <pt x="295" y="558" on="0"/>
        <pt x="264" y="558" on="1"/>
        <pt x="233" y="558" on="0"/>
        <pt x="181" y="532" on="0"/>
        <pt x="151" y="490" on="0"/>
        <pt x="151" y="466" on="1"/>
        <pt x="151" y="422" on="0"/>
        <pt x="214" y="361" on="0"/>
      </contour>
      <contour>
        <pt x="264" y="44" on="1"/>
        <pt x="330" y="44" on="0"/>
        <pt x="415" y="119" on="0"/>
        <pt x="415" y="176" on="1"/>
        <pt x="415" y="216" on="0"/>
        <pt x="369" y="276" on="0"/>
        <pt x="299" y="309" on="0"/>
        <pt x="264" y="309" on="1"/>
        <pt x="228" y="309" on="0"/>
        <pt x="158" y="276" on="0"/>
        <pt x="113" y="216" on="0"/>
        <pt x="113" y="176" on="1"/>
        <pt x="113" y="119" on="0"/>
        <pt x="197" y="44" on="0"/>
      </contour>
    </TTGlyph>
    <TTGlyph name="emdash" xMin="52" yMin="248" xMax="660" yMax="298">
      <contour>
        <pt x="52" y="248" on="1"/>
        <pt x="52" y="298" on="1"/>
        <pt x="660" y="298" on="1"/>
        <pt x="660" y="248" on="1"/>
      </contour>
    </TTGlyph>
    <TTGlyph name="endash" xMin="52" yMin="248" xMax="472" yMax="298">
      <contour>
        <pt x="52" y="248" on="1"/>
        <pt x="52" y="298" on="1"/>
        <pt x="472" y="298" on="1"/>
        <pt x="472" y="248" on="1"/>
      </contour>
    </TTGlyph>
    <TTGlyph name="equal" xMin="60" yMin="175" xMax="442" yMax="401">
      <contour>
        <pt x="60" y="351" on="1"/>
        <pt x="60" y="401" on="1"/>
        <pt x="442" y="401" on="1"/>
        <pt x="442" y="351" on="1"/>
      </contour>
      <contour>
        <pt x="60" y="175" on="1"/>
        <pt x="60" y="224" on="1"/>
        <pt x="442" y="224" on="1"/>
        <pt x="442" y="175" on="1"/>
      </contour>
    </TTGlyph>
    <TTGlyph name="exclam" xMin="65" yMin="-7" xMax="156" yMax="599">
      <contour>
        <pt x="93" y="159" on="1"/>
        <pt x="90" y="212" on="0"/>
        <pt x="84" y="331" on="0"/>
        <pt x="81" y="442" on="0"/>
        <pt x="81" y="482" on="1"/>
        <pt x="81" y="599" on="1"/>
        <pt x="139" y="599" on="1"/>
        <pt x="139" y="482" on="1"/>
        <pt x="139" y="442" on="0"/>
        <pt x="135" y="331" on="0"/>
        <pt x="130" y="212" on="0"/>
        <pt x="127" y="159" on="1"/>
      </contour>
      <contour>
        <pt x="66" y="36" on="1"/>
        <pt x="65" y="55" on="0"/>
        <pt x="88" y="82" on="0"/>
        <pt x="107" y="84" on="1"/>
        <pt x="126" y="85" on="0"/>
        <pt x="153" y="62" on="0"/>
        <pt x="155" y="43" on="1"/>
        <pt x="156" y="24" on="0"/>
        <pt x="132" y="-4" on="0"/>
        <pt x="113" y="-5" on="1"/>
        <pt x="93" y="-7" on="0"/>
        <pt x="67" y="18" on="0"/>
      </contour>
    </TTGlyph>
    <TTGlyph name="five" xMin="71" yMin="-15" xMax="466" yMax="602">
      <contour>
        <pt x="262" y="-15" on="1"/>
        <pt x="204" y="-15" on="0"/>
        <pt x="104" y="22" on="0"/>
        <pt x="71" y="42" on="1"/>
        <pt x="101" y="90" on="1"/>
        <pt x="124" y="75" on="0"/>
        <pt x="212" y="41" on="0"/>
        <pt x="262" y="41" on="1"/>
        <pt x="328" y="41" on="0"/>
        <pt x="411" y="121" on="0"/>
        <pt x="411" y="187" on="1"/>
        <pt x="411" y="256" on="0"/>
        <pt x="324" y="323" on="0"/>
        <pt x="255" y="323" on="1"/>
        <pt x="196" y="323" on="0"/>
        <pt x="93" y="294" on="1"/>
        <pt x="102" y="602" on="1"/>
        <pt x="429" y="602" on="1"/>
        <pt x="429" y="546" on="1"/>
        <pt x="156" y="546" on="1"/>
        <pt x="151" y="367" on="1"/>
        <pt x="174" y="371" on="0"/>
        <pt x="236" y="379" on="0"/>
        <pt x="255" y="379" on="1"/>
        <pt x="349" y="379" on="0"/>
        <pt x="466" y="278" on="0"/>
        <pt x="466" y="187" on="1"/>
        <pt x="466" y="127" on="0"/>
        <pt x="414" y="36" on="0"/>
        <pt x="321" y="-15" on="0"/>
      </contour>
    </TTGlyph>
    <TTGlyph name="four" xMin="37" yMin="0" xMax="466" yMax="602">
      <contour>
        <pt x="346" y="0" on="1"/>
        <pt x="346" y="149" on="1"/>
        <pt x="37" y="148" on="1"/>
        <pt x="37" y="187" on="1"/>
        <pt x="357" y="602" on="1"/>
        <pt x="401" y="602" on="1"/>
        <pt x="401" y="205" on="1"/>
        <pt x="466" y="205" on="1"/>
        <pt x="466" y="149" on="1"/>
        <pt x="401" y="149" on="1"/>
        <pt x="401" y="0" on="1"/>
      </contour>
      <contour>
        <pt x="113" y="204" on="1"/>
        <pt x="135" y="204" on="1"/>
        <pt x="346" y="204" on="1"/>
        <pt x="346" y="496" on="1"/>
      </contour>
    </TTGlyph>
    <TTGlyph name="greater" xMin="63" yMin="92" xMax="507" yMax="504">
      <contour>
        <pt x="63" y="92" on="1"/>
        <pt x="63" y="144" on="1"/>
        <pt x="445" y="300" on="1"/>
        <pt x="63" y="452" on="1"/>
        <pt x="63" y="504" on="1"/>
        <pt x="507" y="326" on="1"/>
        <pt x="507" y="275" on="1"/>
      </contour>
    </TTGlyph>
    <TTGlyph name="hyphen" xMin="65" yMin="248" xMax="428" yMax="298">
      <contour>
        <pt x="65" y="298" on="1"/>
        <pt x="428" y="298" on="1"/>
        <pt x="428" y="248" on="1"/>
        <pt x="65" y="248" on="1"/>
      </contour>
    </TTGlyph>
    <TTGlyph name="less" xMin="63" yMin="92" xMax="507" yMax="504">
      <contour>
        <pt x="506" y="92" on="1"/>
        <pt x="63" y="275" on="1"/>
        <pt x="63" y="326" on="1"/>
        <pt x="506" y="504" on="1"/>
        <pt x="507" y="452" on="1"/>
        <pt x="125" y="300" on="1"/>
        <pt x="507" y="144" on="1"/>
      </contour>
    </TTGlyph>
    <TTGlyph name="minus" xMin="68" yMin="257" xMax="428" yMax="307">
      <contour>
        <pt x="68" y="306" on="1"/>
        <pt x="328" y="307" on="1"/>
        <pt x="428" y="258" on="1"/>
        <pt x="167" y="257" on="1"/>
      </contour>
    </TTGlyph>
    <TTGlyph name="multiply" xMin="70" yMin="118" xMax="395" yMax="443">
      <contour>
        <pt x="104" y="118" on="1"/>
        <pt x="70" y="152" on="1"/>
        <pt x="198" y="280" on="1"/>
        <pt x="70" y="408" on="1"/>
        <pt x="104" y="443" on="1"/>
        <pt x="233" y="314" on="1"/>
        <pt x="361" y="442" on="1"/>
        <pt x="395" y="408" on="1"/>
        <pt x="267" y="280" on="1"/>
        <pt x="395" y="153" on="1"/>
        <pt x="361" y="118" on="1"/>
        <pt x="233" y="245" on="1"/>
      </contour>
    </TTGlyph>
    <TTGlyph name="nine" xMin="58" yMin="-26" xMax="463" yMax="620">
      <contour>
        <pt x="213" y="-26" on="1"/>
        <pt x="174" y="14" on="1"/>
        <pt x="232" y="66" on="0"/>
        <pt x="334" y="178" on="0"/>
        <pt x="366" y="242" on="1"/>
        <pt x="343" y="228" on="0"/>
        <pt x="290" y="212" on="0"/>
        <pt x="260" y="212" on="1"/>
        <pt x="204" y="212" on="0"/>
        <pt x="112" y="266" on="0"/>
        <pt x="58" y="355" on="0"/>
        <pt x="58" y="409" on="1"/>
        <pt x="58" y="470" on="0"/>
        <pt x="108" y="565" on="0"/>
        <pt x="197" y="620" on="0"/>
        <pt x="255" y="620" on="1"/>
        <pt x="313" y="620" on="0"/>
        <pt x="407" y="565" on="0"/>
        <pt x="463" y="470" on="0"/>
        <pt x="463" y="411" on="1"/>
        <pt x="463" y="410" on="0"/>
        <pt x="463" y="409" on="1"/>
        <pt x="462" y="328" on="0"/>
        <pt x="395" y="173" on="0"/>
        <pt x="282" y="32" on="0"/>
      </contour>
      <contour>
        <pt x="260" y="268" on="1"/>
        <pt x="301" y="268" on="0"/>
        <pt x="368" y="304" on="0"/>
        <pt x="408" y="369" on="0"/>
        <pt x="408" y="411" on="1"/>
        <pt x="408" y="455" on="0"/>
        <pt x="366" y="525" on="0"/>
        <pt x="297" y="565" on="0"/>
        <pt x="255" y="565" on="1"/>
        <pt x="190" y="565" on="0"/>
        <pt x="113" y="477" on="0"/>
        <pt x="113" y="409" on="1"/>
        <pt x="113" y="370" on="0"/>
        <pt x="153" y="305" on="0"/>
        <pt x="220" y="268" on="0"/>
      </contour>
    </TTGlyph>
    <TTGlyph name="notequal" xMin="60" yMin="76" xMax="442" yMax="483">
      <contour>
        <pt x="119" y="76" on="1"/>
        <pt x="168" y="175" on="1"/>
        <pt x="60" y="175" on="1"/>
        <pt x="60" y="224" on="1"/>
        <pt x="191" y="224" on="1"/>
        <pt x="253" y="351" on="1"/>
        <pt x="60" y="351" on="1"/>
        <pt x="60" y="401" on="1"/>
        <pt x="277" y="401" on="1"/>
        <pt x="317" y="483" on="1"/>
        <pt x="370" y="483" on="1"/>
        <pt x="330" y="401" on="1"/>
        <pt x="442" y="401" on="1"/>
        <pt x="442" y="351" on="1"/>
        <pt x="306" y="351" on="1"/>
        <pt x="244" y="224" on="1"/>
        <pt x="442" y="224" on="1"/>
        <pt x="442" y="175" on="1"/>
        <pt x="221" y="175" on="1"/>
        <pt x="172" y="76" on="1"/>
      </contour>
    </TTGlyph>
    <TTGlyph name="numbersign" xMin="64" yMin="-60" xMax="679" yMax="640">
      <contour>
        <pt x="64" y="138" on="1"/>
        <pt x="64" y="195" on="1"/>
        <pt x="203" y="195" on="1"/>
        <pt x="230" y="383" on="1"/>
        <pt x="64" y="383" on="1"/>
        <pt x="64" y="440" on="1"/>
        <pt x="238" y="440" on="1"/>
        <pt x="266" y="640" on="1"/>
        <pt x="325" y="640" on="1"/>
        <pt x="297" y="440" on="1"/>
        <pt x="482" y="440" on="1"/>
        <pt x="511" y="640" on="1"/>
        <pt x="570" y="640" on="1"/>
        <pt x="541" y="440" on="1"/>
        <pt x="679" y="440" on="1"/>
        <pt x="679" y="383" on="1"/>
        <pt x="533" y="383" on="1"/>
        <pt x="506" y="195" on="1"/>
        <pt x="679" y="195" on="1"/>
        <pt x="679" y="138" on="1"/>
        <pt x="498" y="138" on="1"/>
        <pt x="469" y="-60" on="1"/>
        <pt x="410" y="-60" on="1"/>
        <pt x="439" y="138" on="1"/>
        <pt x="253" y="138" on="1"/>
        <pt x="225" y="-60" on="1"/>
        <pt x="166" y="-60" on="1"/>
        <pt x="195" y="138" on="1"/>
      </contour>
      <contour>
        <pt x="262" y="195" on="1"/>
        <pt x="447" y="195" on="1"/>
        <pt x="474" y="383" on="1"/>
        <pt x="288" y="383" on="1"/>
      </contour>
    </TTGlyph>
    <TTGlyph name="one" xMin="63" yMin="0" xMax="313" yMax="614">
      <contour>
        <pt x="257" y="0" on="1"/>
        <pt x="257" y="521" on="1"/>
        <pt x="63" y="432" on="1"/>
        <pt x="63" y="495" on="1"/>
        <pt x="313" y="614" on="1"/>
        <pt x="313" y="0" on="1"/>
      </contour>
    </TTGlyph>
    <TTGlyph name="parenleft" xMin="51" yMin="-242" xMax="300" yMax="741">
      <contour>
        <pt x="260" y="-242" on="1"/>
        <pt x="209" y="-192" on="0"/>
        <pt x="113" y="-54" on="0"/>
        <pt x="51" y="130" on="0"/>
        <pt x="51" y="249" on="1"/>
        <pt x="51" y="369" on="0"/>
        <pt x="114" y="552" on="0"/>
        <pt x="209" y="689" on="0"/>
        <pt x="258" y="741" on="1"/>
        <pt x="299" y="697" on="1"/>
        <pt x="251" y="648" on="0"/>
        <pt x="166" y="522" on="0"/>
        <pt x="113" y="356" on="0"/>
        <pt x="113" y="250" on="1"/>
        <pt x="113" y="143" on="0"/>
        <pt x="166" y="-23" on="0"/>
        <pt x="251" y="-150" on="0"/>
        <pt x="300" y="-198" on="1"/>
      </contour>
    </TTGlyph>
    <TTGlyph name="parenright" xMin="51" yMin="-242" xMax="300" yMax="741">
      <contour>
        <pt x="92" y="-242" on="1"/>
        <pt x="51" y="-198" on="1"/>
        <pt x="100" y="-150" on="0"/>
        <pt x="185" y="-23" on="0"/>
        <pt x="238" y="143" on="0"/>
        <pt x="238" y="250" on="1"/>
        <pt x="238" y="356" on="0"/>
        <pt x="185" y="522" on="0"/>
        <pt x="100" y="648" on="0"/>
        <pt x="53" y="697" on="1"/>
        <pt x="94" y="741" on="1"/>
        <pt x="143" y="689" on="0"/>
        <pt x="238" y="552" on="0"/>
        <pt x="300" y="369" on="0"/>
        <pt x="300" y="249" on="1"/>
        <pt x="300" y="130" on="0"/>
        <pt x="238" y="-54" on="0"/>
        <pt x="142" y="-192" on="0"/>
      </contour>
    </TTGlyph>
    <TTGlyph name="percent" xMin="34" yMin="-40" xMax="813" yMax="633">
      <contour>
        <pt x="169" y="-40" on="1"/>
        <pt x="130" y="-5" on="1"/>
        <pt x="677" y="633" on="1"/>
        <pt x="718" y="600" on="1"/>
      </contour>
      <contour>
        <pt x="205" y="274" on="1"/>
        <pt x="158" y="274" on="0"/>
        <pt x="80" y="320" on="0"/>
        <pt x="34" y="397" on="0"/>
        <pt x="34" y="444" on="1"/>
        <pt x="34" y="491" on="0"/>
        <pt x="80" y="568" on="0"/>
        <pt x="158" y="614" on="0"/>
        <pt x="205" y="614" on="1"/>
        <pt x="252" y="614" on="0"/>
        <pt x="329" y="568" on="0"/>
        <pt x="375" y="491" on="0"/>
        <pt x="375" y="444" on="1"/>
        <pt x="375" y="397" on="0"/>
        <pt x="329" y="320" on="0"/>
        <pt x="252" y="274" on="0"/>
      </contour>
      <contour>
        <pt x="205" y="322" on="1"/>
        <pt x="238" y="322" on="0"/>
        <pt x="292" y="355" on="0"/>
        <pt x="324" y="410" on="0"/>
        <pt x="324" y="444" on="1"/>
        <pt x="324" y="478" on="0"/>
        <pt x="292" y="533" on="0"/>
        <pt x="238" y="566" on="0"/>
        <pt x="205" y="566" on="1"/>
        <pt x="172" y="566" on="0"/>
        <pt x="117" y="533" on="0"/>
        <pt x="85" y="478" on="0"/>
        <pt x="85" y="444" on="1"/>
        <pt x="85" y="410" on="0"/>
        <pt x="118" y="355" on="0"/>
        <pt x="172" y="322" on="0"/>
      </contour>
      <contour>
        <pt x="643" y="-23" on="1"/>
        <pt x="596" y="-23" on="0"/>
        <pt x="519" y="23" on="0"/>
        <pt x="473" y="100" on="0"/>
        <pt x="473" y="147" on="1"/>
        <pt x="473" y="195" on="0"/>
        <pt x="519" y="272" on="0"/>
        <pt x="596" y="317" on="0"/>
        <pt x="643" y="317" on="1"/>
        <pt x="690" y="317" on="0"/>
        <pt x="767" y="272" on="0"/>
        <pt x="813" y="195" on="0"/>
        <pt x="813" y="147" on="1"/>
        <pt x="813" y="100" on="0"/>
        <pt x="767" y="23" on="0"/>
        <pt x="690" y="-23" on="0"/>
      </contour>
      <contour>
        <pt x="643" y="25" on="1"/>
        <pt x="676" y="25" on="0"/>
        <pt x="730" y="58" on="0"/>
        <pt x="763" y="113" on="0"/>
        <pt x="763" y="147" on="1"/>
        <pt x="763" y="182" on="0"/>
        <pt x="730" y="237" on="0"/>
        <pt x="676" y="269" on="0"/>
        <pt x="643" y="269" on="1"/>
        <pt x="610" y="269" on="0"/>
        <pt x="555" y="237" on="0"/>
        <pt x="523" y="182" on="0"/>
        <pt x="523" y="147" on="1"/>
        <pt x="523" y="113" on="0"/>
        <pt x="556" y="58" on="0"/>
        <pt x="610" y="25" on="0"/>
      </contour>
    </TTGlyph>
    <TTGlyph name="period" xMin="52" yMin="-8" xMax="147" yMax="87">
      <contour>
        <pt x="52" y="40" on="1"/>
        <pt x="52" y="60" on="0"/>
        <pt x="79" y="87" on="0"/>
        <pt x="99" y="87" on="1"/>
        <pt x="120" y="87" on="0"/>
        <pt x="147" y="60" on="0"/>
        <pt x="147" y="40" on="1"/>
        <pt x="147" y="19" on="0"/>
        <pt x="120" y="-8" on="0"/>
        <pt x="99" y="-8" on="1"/>
        <pt x="79" y="-8" on="0"/>
        <pt x="52" y="19" on="0"/>
      </contour>
    </TTGlyph>
    <TTGlyph name="periodcentered" xMin="54" yMin="235" xMax="145" yMax="327">
      <contour>
        <pt x="55" y="278" on="1"/>
        <pt x="54" y="297" on="0"/>
        <pt x="78" y="324" on="0"/>
        <pt x="96" y="325" on="1"/>
        <pt x="116" y="327" on="0"/>
        <pt x="142" y="303" on="0"/>
        <pt x="144" y="284" on="1"/>
        <pt x="145" y="265" on="0"/>
        <pt x="122" y="238" on="0"/>
        <pt x="102" y="237" on="1"/>
        <pt x="83" y="235" on="0"/>
        <pt x="56" y="259" on="0"/>
      </contour>
    </TTGlyph>
    <TTGlyph name="plus" xMin="68" yMin="235" xMax="428" yMax="426">
      <contour>
        <pt x="68" y="235" on="1"/>
        <pt x="68" y="285" on="1"/>
        <pt x="222" y="285" on="1"/>
        <pt x="222" y="426" on="1"/>
        <pt x="273" y="426" on="1"/>
        <pt x="273" y="285" on="1"/>
        <pt x="428" y="285" on="1"/>
        <pt x="428" y="235" on="1"/>
      </contour>
    </TTGlyph>
    <TTGlyph name="question" xMin="67" yMin="-8" xMax="472" yMax="619">
      <contour>
        <pt x="232" y="164" on="1"/>
        <pt x="232" y="173" on="1"/>
        <pt x="232" y="220" on="0"/>
        <pt x="269" y="283" on="0"/>
        <pt x="323" y="327" on="0"/>
        <pt x="377" y="366" on="0"/>
        <pt x="414" y="413" on="0"/>
        <pt x="414" y="448" on="1"/>
        <pt x="414" y="480" on="0"/>
        <pt x="374" y="535" on="0"/>
        <pt x="311" y="568" on="0"/>
        <pt x="276" y="568" on="1"/>
        <pt x="221" y="568" on="0"/>
        <pt x="142" y="509" on="0"/>
        <pt x="118" y="466" on="1"/>
        <pt x="67" y="489" on="1"/>
        <pt x="85" y="524" on="0"/>
        <pt x="147" y="583" on="0"/>
        <pt x="229" y="619" on="0"/>
        <pt x="277" y="619" on="1"/>
        <pt x="328" y="619" on="0"/>
        <pt x="418" y="573" on="0"/>
        <pt x="472" y="495" on="0"/>
        <pt x="472" y="447" on="1"/>
        <pt x="472" y="403" on="0"/>
        <pt x="435" y="346" on="0"/>
        <pt x="379" y="304" on="0"/>
        <pt x="323" y="265" on="0"/>
        <pt x="285" y="213" on="0"/>
        <pt x="285" y="173" on="1"/>
        <pt x="285" y="164" on="1"/>
      </contour>
      <contour>
        <pt x="259" y="-8" on="1"/>
        <pt x="239" y="-8" on="0"/>
        <pt x="212" y="19" on="0"/>
        <pt x="212" y="40" on="1"/>
        <pt x="212" y="60" on="0"/>
        <pt x="239" y="87" on="0"/>
        <pt x="259" y="87" on="1"/>
        <pt x="280" y="87" on="0"/>
        <pt x="307" y="60" on="0"/>
        <pt x="307" y="40" on="1"/>
        <pt x="307" y="19" on="0"/>
        <pt x="280" y="-8" on="0"/>
      </contour>
    </TTGlyph>
    <TTGlyph name="quotedbl" xMin="42" yMin="364" xMax="327" yMax="599">
      <contour>
        <pt x="190" y="364" on="1"/>
        <pt x="262" y="599" on="1"/>
        <pt x="327" y="599" on="1"/>
        <pt x="242" y="364" on="1"/>
      </contour>
      <contour>
        <pt x="42" y="364" on="1"/>
        <pt x="114" y="599" on="1"/>
        <pt x="178" y="599" on="1"/>
        <pt x="93" y="364" on="1"/>
      </contour>
    </TTGlyph>
    <TTGlyph name="quotesingle" xMin="39" yMin="364" xMax="176" yMax="599">
      <contour>
        <pt x="39" y="364" on="1"/>
        <pt x="111" y="599" on="1"/>
        <pt x="176" y="599" on="1"/>
        <pt x="91" y="364" on="1"/>
      </contour>
    </TTGlyph>
    <TTGlyph name="registered" xMin="64" yMin="192" xMax="482" yMax="610">
      <contour>
        <pt x="273" y="192" on="1"/>
        <pt x="216" y="192" on="0"/>
        <pt x="121" y="249" on="0"/>
        <pt x="64" y="344" on="0"/>
        <pt x="64" y="401" on="1"/>
        <pt x="64" y="459" on="0"/>
        <pt x="121" y="554" on="0"/>
        <pt x="216" y="610" on="0"/>
        <pt x="273" y="610" on="1"/>
        <pt x="331" y="610" on="0"/>
        <pt x="426" y="554" on="0"/>
        <pt x="482" y="459" on="0"/>
        <pt x="482" y="401" on="1"/>
        <pt x="482" y="344" on="0"/>
        <pt x="426" y="249" on="0"/>
        <pt x="331" y="192" on="0"/>
      </contour>
      <contour>
        <pt x="273" y="222" on="1"/>
        <pt x="323" y="222" on="0"/>
        <pt x="403" y="270" on="0"/>
        <pt x="450" y="352" on="0"/>
        <pt x="450" y="401" on="1"/>
        <pt x="450" y="450" on="0"/>
        <pt x="403" y="532" on="0"/>
        <pt x="323" y="581" on="0"/>
        <pt x="273" y="581" on="1"/>
        <pt x="223" y="581" on="0"/>
        <pt x="143" y="532" on="0"/>
        <pt x="97" y="451" on="0"/>
        <pt x="97" y="401" on="1"/>
        <pt x="97" y="352" on="0"/>
        <pt x="143" y="271" on="0"/>
        <pt x="223" y="222" on="0"/>
      </contour>
      <contour>
        <pt x="203" y="299" on="1"/>
        <pt x="203" y="509" on="1"/>
        <pt x="278" y="509" on="1"/>
        <pt x="315" y="509" on="0"/>
        <pt x="359" y="470" on="0"/>
        <pt x="359" y="441" on="1"/>
        <pt x="359" y="417" on="0"/>
        <pt x="333" y="382" on="0"/>
        <pt x="309" y="375" on="1"/>
        <pt x="358" y="299" on="1"/>
        <pt x="325" y="299" on="1"/>
        <pt x="278" y="373" on="1"/>
        <pt x="234" y="373" on="1"/>
        <pt x="234" y="299" on="1"/>
      </contour>
      <contour>
        <pt x="234" y="396" on="1"/>
        <pt x="273" y="396" on="1"/>
        <pt x="297" y="395" on="0"/>
        <pt x="327" y="419" on="0"/>
        <pt x="327" y="439" on="1"/>
        <pt x="327" y="461" on="0"/>
        <pt x="296" y="482" on="0"/>
        <pt x="273" y="482" on="1"/>
        <pt x="234" y="482" on="1"/>
      </contour>
    </TTGlyph>
    <TTGlyph name="semicolon" xMin="33" yMin="-117" xMax="147" yMax="454">
      <contour>
        <pt x="99" y="359" on="1"/>
        <pt x="78" y="359" on="0"/>
        <pt x="52" y="386" on="0"/>
        <pt x="52" y="407" on="1"/>
        <pt x="52" y="427" on="0"/>
        <pt x="79" y="454" on="0"/>
        <pt x="99" y="454" on="1"/>
        <pt x="120" y="454" on="0"/>
        <pt x="147" y="427" on="0"/>
        <pt x="147" y="407" on="1"/>
        <pt x="147" y="386" on="0"/>
        <pt x="120" y="359" on="0"/>
      </contour>
      <contour>
        <pt x="33" y="-117" on="1"/>
        <pt x="76" y="98" on="1"/>
        <pt x="141" y="98" on="1"/>
        <pt x="80" y="-117" on="1"/>
      </contour>
    </TTGlyph>
    <TTGlyph name="seven" xMin="56" yMin="0" xMax="465" yMax="602">
      <contour>
        <pt x="208" y="0" on="1"/>
        <pt x="146" y="0" on="1"/>
        <pt x="381" y="546" on="1"/>
        <pt x="56" y="546" on="1"/>
        <pt x="56" y="602" on="1"/>
        <pt x="465" y="602" on="1"/>
      </contour>
    </TTGlyph>
    <TTGlyph name="six" xMin="58" yMin="-14" xMax="463" yMax="616">
      <contour>
        <pt x="58" y="195" on="1"/>
        <pt x="58" y="276" on="0"/>
        <pt x="123" y="421" on="0"/>
        <pt x="232" y="554" on="0"/>
        <pt x="298" y="616" on="1"/>
        <pt x="337" y="576" on="1"/>
        <pt x="294" y="536" on="0"/>
        <pt x="189" y="418" on="0"/>
        <pt x="154" y="349" on="1"/>
        <pt x="204" y="379" on="0"/>
        <pt x="260" y="379" on="1"/>
        <pt x="319" y="379" on="0"/>
        <pt x="411" y="329" on="0"/>
        <pt x="463" y="242" on="0"/>
        <pt x="463" y="186" on="1"/>
        <pt x="463" y="130" on="0"/>
        <pt x="412" y="39" on="0"/>
        <pt x="323" y="-14" on="0"/>
        <pt x="265" y="-14" on="1"/>
        <pt x="208" y="-14" on="0"/>
        <pt x="114" y="41" on="0"/>
        <pt x="58" y="136" on="0"/>
      </contour>
      <contour>
        <pt x="265" y="41" on="1"/>
        <pt x="307" y="41" on="0"/>
        <pt x="372" y="80" on="0"/>
        <pt x="408" y="145" on="0"/>
        <pt x="408" y="186" on="1"/>
        <pt x="408" y="250" on="0"/>
        <pt x="323" y="323" on="0"/>
        <pt x="260" y="323" on="1"/>
        <pt x="197" y="323" on="0"/>
        <pt x="114" y="257" on="0"/>
        <pt x="114" y="195" on="1"/>
        <pt x="114" y="150" on="0"/>
        <pt x="155" y="81" on="0"/>
        <pt x="224" y="41" on="0"/>
      </contour>
    </TTGlyph>
    <TTGlyph name="slash" xMin="24" yMin="-185" xMax="357" yMax="730">
      <contour>
        <pt x="24" y="-185" on="1"/>
        <pt x="297" y="730" on="1"/>
        <pt x="357" y="730" on="1"/>
        <pt x="84" y="-185" on="1"/>
      </contour>
    </TTGlyph>
    <TTGlyph name="three" xMin="56" yMin="-12" xMax="472" yMax="602">
      <contour>
        <pt x="256" y="-12" on="1"/>
        <pt x="200" y="-12" on="0"/>
        <pt x="94" y="24" on="0"/>
        <pt x="56" y="45" on="1"/>
        <pt x="84" y="94" on="1"/>
        <pt x="118" y="74" on="0"/>
        <pt x="209" y="44" on="0"/>
        <pt x="256" y="44" on="1"/>
        <pt x="328" y="44" on="0"/>
        <pt x="416" y="127" on="0"/>
        <pt x="416" y="188" on="1"/>
        <pt x="416" y="255" on="0"/>
        <pt x="295" y="324" on="0"/>
        <pt x="171" y="340" on="1"/>
        <pt x="353" y="521" on="1"/>
        <pt x="379" y="546" on="1"/>
        <pt x="77" y="546" on="1"/>
        <pt x="77" y="602" on="1"/>
        <pt x="452" y="602" on="1"/>
        <pt x="451" y="546" on="1"/>
        <pt x="282" y="381" on="1"/>
        <pt x="375" y="361" on="0"/>
        <pt x="472" y="264" on="0"/>
        <pt x="472" y="188" on="1"/>
        <pt x="472" y="131" on="0"/>
        <pt x="415" y="41" on="0"/>
        <pt x="318" y="-12" on="0"/>
      </contour>
    </TTGlyph>
    <TTGlyph name="trademark" xMin="41" yMin="271" xMax="623" yMax="554">
      <contour>
        <pt x="139" y="271" on="1"/>
        <pt x="139" y="515" on="1"/>
        <pt x="41" y="515" on="1"/>
        <pt x="41" y="554" on="1"/>
        <pt x="279" y="554" on="1"/>
        <pt x="279" y="515" on="1"/>
        <pt x="181" y="515" on="1"/>
        <pt x="181" y="271" on="1"/>
      </contour>
      <contour>
        <pt x="315" y="271" on="1"/>
        <pt x="315" y="553" on="1"/>
        <pt x="355" y="553" on="1"/>
        <pt x="469" y="410" on="1"/>
        <pt x="586" y="553" on="1"/>
        <pt x="623" y="553" on="1"/>
        <pt x="623" y="271" on="1"/>
        <pt x="581" y="271" on="1"/>
        <pt x="581" y="483" on="1"/>
        <pt x="469" y="350" on="1"/>
        <pt x="357" y="484" on="1"/>
        <pt x="357" y="271" on="1"/>
      </contour>
    </TTGlyph>
    <TTGlyph name="two" xMin="53" yMin="0" xMax="481" yMax="615">
      <contour>
        <pt x="76" y="0" on="1"/>
        <pt x="80" y="65" on="1"/>
        <pt x="173" y="139" on="0"/>
        <pt x="321" y="254" on="0"/>
        <pt x="406" y="360" on="0"/>
        <pt x="406" y="420" on="1"/>
        <pt x="406" y="479" on="0"/>
        <pt x="332" y="559" on="0"/>
        <pt x="268" y="559" on="1"/>
        <pt x="221" y="559" on="0"/>
        <pt x="130" y="508" on="0"/>
        <pt x="100" y="466" on="1"/>
        <pt x="53" y="496" on="1"/>
        <pt x="75" y="526" on="0"/>
        <pt x="135" y="581" on="0"/>
        <pt x="214" y="615" on="0"/>
        <pt x="268" y="614" on="1"/>
        <pt x="327" y="615" on="0"/>
        <pt x="414" y="562" on="0"/>
        <pt x="462" y="473" on="0"/>
        <pt x="462" y="420" on="1"/>
        <pt x="462" y="354" on="0"/>
        <pt x="384" y="240" on="0"/>
        <pt x="247" y="124" on="0"/>
        <pt x="159" y="56" on="1"/>
        <pt x="481" y="56" on="1"/>
        <pt x="481" y="0" on="1"/>
      </contour>
    </TTGlyph>
    <TTGlyph name="underscore" xMin="58" yMin="-7" xMax="500" yMax="43">
      <contour>
        <pt x="58" y="43" on="1"/>
        <pt x="500" y="43" on="1"/>
        <pt x="500" y="-7" on="1"/>
        <pt x="58" y="-7" on="1"/>
      </contour>
    </TTGlyph>
    <TTGlyph name="uni05B0" xMin="-34" yMin="-275" xMax="33" yMax="-91">
      <contour>
        <pt x="0" y="-160" on="1"/>
        <pt x="-15" y="-160" on="0"/>
        <pt x="-34" y="-140" on="0"/>
        <pt x="-34" y="-126" on="1"/>
        <pt x="-34" y="-112" on="0"/>
        <pt x="-15" y="-91" on="0"/>
        <pt x="0" y="-91" on="1"/>
        <pt x="14" y="-91" on="0"/>
        <pt x="33" y="-112" on="0"/>
        <pt x="33" y="-126" on="1"/>
        <pt x="33" y="-140" on="0"/>
        <pt x="14" y="-160" on="0"/>
      </contour>
      <contour>
        <pt x="0" y="-275" on="1"/>
        <pt x="-15" y="-275" on="0"/>
        <pt x="-34" y="-255" on="0"/>
        <pt x="-34" y="-241" on="1"/>
        <pt x="-34" y="-227" on="0"/>
        <pt x="-15" y="-206" on="0"/>
        <pt x="0" y="-206" on="1"/>
        <pt x="14" y="-206" on="0"/>
        <pt x="33" y="-227" on="0"/>
        <pt x="33" y="-241" on="1"/>
        <pt x="33" y="-255" on="0"/>
        <pt x="14" y="-275" on="0"/>
      </contour>
    </TTGlyph>
    <TTGlyph name="uni05B1" xMin="-149" yMin="-275" xMax="149" yMax="-91">
      <contour>
        <pt x="116" y="-160" on="1"/>
        <pt x="101" y="-160" on="0"/>
        <pt x="82" y="-140" on="0"/>
        <pt x="82" y="-126" on="1"/>
        <pt x="82" y="-112" on="0"/>
        <pt x="101" y="-91" on="0"/>
        <pt x="116" y="-91" on="1"/>
        <pt x="130" y="-91" on="0"/>
        <pt x="149" y="-112" on="0"/>
        <pt x="149" y="-126" on="1"/>
        <pt x="149" y="-140" on="0"/>
        <pt x="130" y="-160" on="0"/>
      </contour>
      <contour>
        <pt x="-115" y="-160" on="1"/>
        <pt x="-130" y="-160" on="0"/>
        <pt x="-149" y="-140" on="0"/>
        <pt x="-149" y="-126" on="1"/>
        <pt x="-149" y="-112" on="0"/>
        <pt x="-130" y="-91" on="0"/>
        <pt x="-115" y="-91" on="1"/>
        <pt x="-101" y="-91" on="0"/>
        <pt x="-82" y="-112" on="0"/>
        <pt x="-82" y="-126" on="1"/>
        <pt x="-82" y="-140" on="0"/>
        <pt x="-101" y="-160" on="0"/>
      </contour>
      <contour>
        <pt x="-1" y="-160" on="1"/>
        <pt x="-16" y="-160" on="0"/>
        <pt x="-35" y="-140" on="0"/>
        <pt x="-35" y="-126" on="1"/>
        <pt x="-35" y="-112" on="0"/>
        <pt x="-16" y="-91" on="0"/>
        <pt x="-1" y="-91" on="1"/>
        <pt x="13" y="-91" on="0"/>
        <pt x="32" y="-112" on="0"/>
        <pt x="32" y="-126" on="1"/>
        <pt x="32" y="-140" on="0"/>
        <pt x="13" y="-160" on="0"/>
      </contour>
      <contour>
        <pt x="116" y="-275" on="1"/>
        <pt x="101" y="-275" on="0"/>
        <pt x="82" y="-255" on="0"/>
        <pt x="82" y="-241" on="1"/>
        <pt x="82" y="-227" on="0"/>
        <pt x="101" y="-206" on="0"/>
        <pt x="116" y="-206" on="1"/>
        <pt x="130" y="-206" on="0"/>
        <pt x="149" y="-227" on="0"/>
        <pt x="149" y="-241" on="1"/>
        <pt x="149" y="-255" on="0"/>
        <pt x="130" y="-275" on="0"/>
      </contour>
      <contour>
        <pt x="-58" y="-275" on="1"/>
        <pt x="-73" y="-275" on="0"/>
        <pt x="-92" y="-255" on="0"/>
        <pt x="-92" y="-241" on="1"/>
        <pt x="-92" y="-227" on="0"/>
        <pt x="-73" y="-206" on="0"/>
        <pt x="-58" y="-206" on="1"/>
        <pt x="-44" y="-206" on="0"/>
        <pt x="-25" y="-227" on="0"/>
        <pt x="-25" y="-241" on="1"/>
        <pt x="-25" y="-255" on="0"/>
        <pt x="-44" y="-275" on="0"/>
      </contour>
    </TTGlyph>
    <TTGlyph name="uni05B2" xMin="-156" yMin="-275" xMax="139" yMax="-91">
      <contour>
        <pt x="106" y="-160" on="1"/>
        <pt x="91" y="-160" on="0"/>
        <pt x="72" y="-140" on="0"/>
        <pt x="72" y="-126" on="1"/>
        <pt x="72" y="-112" on="0"/>
        <pt x="91" y="-91" on="0"/>
        <pt x="106" y="-91" on="1"/>
        <pt x="120" y="-91" on="0"/>
        <pt x="139" y="-112" on="0"/>
        <pt x="139" y="-126" on="1"/>
        <pt x="139" y="-140" on="0"/>
        <pt x="120" y="-160" on="0"/>
      </contour>
      <contour>
        <pt x="-156" y="-144" on="1"/>
        <pt x="-156" y="-99" on="1"/>
        <pt x="20" y="-99" on="1"/>
        <pt x="20" y="-144" on="1"/>
      </contour>
      <contour>
        <pt x="106" y="-275" on="1"/>
        <pt x="91" y="-275" on="0"/>
        <pt x="72" y="-255" on="0"/>
        <pt x="72" y="-241" on="1"/>
        <pt x="72" y="-227" on="0"/>
        <pt x="91" y="-206" on="0"/>
        <pt x="106" y="-206" on="1"/>
        <pt x="120" y="-206" on="0"/>
        <pt x="139" y="-227" on="0"/>
        <pt x="139" y="-241" on="1"/>
        <pt x="139" y="-255" on="0"/>
        <pt x="120" y="-275" on="0"/>
      </contour>
    </TTGlyph>
    <TTGlyph name="uni05B3" xMin="-162" yMin="-275" xMax="134" yMax="-91">
      <contour>
        <pt x="101" y="-160" on="1"/>
        <pt x="86" y="-160" on="0"/>
        <pt x="66" y="-140" on="0"/>
        <pt x="66" y="-126" on="1"/>
        <pt x="66" y="-112" on="0"/>
        <pt x="86" y="-91" on="0"/>
        <pt x="101" y="-91" on="1"/>
        <pt x="114" y="-91" on="0"/>
        <pt x="134" y="-112" on="0"/>
        <pt x="134" y="-126" on="1"/>
        <pt x="134" y="-140" on="0"/>
        <pt x="114" y="-160" on="0"/>
      </contour>
      <contour>
        <pt x="-97" y="-275" on="1"/>
        <pt x="-94" y="-144" on="1"/>
        <pt x="-162" y="-144" on="1"/>
        <pt x="-162" y="-99" on="1"/>
        <pt x="14" y="-99" on="1"/>
        <pt x="14" y="-144" on="1"/>
        <pt x="-54" y="-144" on="1"/>
        <pt x="-51" y="-275" on="1"/>
      </contour>
      <contour>
        <pt x="101" y="-275" on="1"/>
        <pt x="86" y="-275" on="0"/>
        <pt x="66" y="-255" on="0"/>
        <pt x="66" y="-241" on="1"/>
        <pt x="66" y="-227" on="0"/>
        <pt x="86" y="-206" on="0"/>
        <pt x="101" y="-206" on="1"/>
        <pt x="114" y="-206" on="0"/>
        <pt x="134" y="-227" on="0"/>
        <pt x="134" y="-241" on="1"/>
        <pt x="134" y="-255" on="0"/>
        <pt x="114" y="-275" on="0"/>
      </contour>
    </TTGlyph>
    <TTGlyph name="uni05B4" xMin="-33" yMin="-159" xMax="32" yMax="-93">
      <contour>
        <pt x="0" y="-159" on="1"/>
        <pt x="-14" y="-159" on="0"/>
        <pt x="-33" y="-139" on="0"/>
        <pt x="-33" y="-126" on="1"/>
        <pt x="-33" y="-112" on="0"/>
        <pt x="-14" y="-93" on="0"/>
        <pt x="0" y="-93" on="1"/>
        <pt x="14" y="-93" on="0"/>
        <pt x="32" y="-112" on="0"/>
        <pt x="32" y="-126" on="1"/>
        <pt x="32" y="-139" on="0"/>
        <pt x="14" y="-159" on="0"/>
      </contour>
    </TTGlyph>
    <TTGlyph name="uni05B5" xMin="-111" yMin="-160" xMax="110" yMax="-91">
      <contour>
        <pt x="-77" y="-160" on="1"/>
        <pt x="-92" y="-160" on="0"/>
        <pt x="-111" y="-140" on="0"/>
        <pt x="-111" y="-126" on="1"/>
        <pt x="-111" y="-112" on="0"/>
        <pt x="-92" y="-91" on="0"/>
        <pt x="-77" y="-91" on="1"/>
        <pt x="-63" y="-91" on="0"/>
        <pt x="-44" y="-112" on="0"/>
        <pt x="-44" y="-126" on="1"/>
        <pt x="-44" y="-140" on="0"/>
        <pt x="-63" y="-160" on="0"/>
      </contour>
      <contour>
        <pt x="77" y="-160" on="1"/>
        <pt x="62" y="-160" on="0"/>
        <pt x="43" y="-140" on="0"/>
        <pt x="43" y="-126" on="1"/>
        <pt x="43" y="-112" on="0"/>
        <pt x="62" y="-91" on="0"/>
        <pt x="77" y="-91" on="1"/>
        <pt x="91" y="-91" on="0"/>
        <pt x="110" y="-112" on="0"/>
        <pt x="110" y="-126" on="1"/>
        <pt x="110" y="-140" on="0"/>
        <pt x="91" y="-160" on="0"/>
      </contour>
    </TTGlyph>
    <TTGlyph name="uni05B6" xMin="-111" yMin="-275" xMax="110" yMax="-91">
      <contour>
        <pt x="-77" y="-160" on="1"/>
        <pt x="-92" y="-160" on="0"/>
        <pt x="-111" y="-140" on="0"/>
        <pt x="-111" y="-126" on="1"/>
        <pt x="-111" y="-112" on="0"/>
        <pt x="-92" y="-91" on="0"/>
        <pt x="-77" y="-91" on="1"/>
        <pt x="-63" y="-91" on="0"/>
        <pt x="-44" y="-112" on="0"/>
        <pt x="-44" y="-126" on="1"/>
        <pt x="-44" y="-140" on="0"/>
        <pt x="-63" y="-160" on="0"/>
      </contour>
      <contour>
        <pt x="77" y="-160" on="1"/>
        <pt x="62" y="-160" on="0"/>
        <pt x="43" y="-140" on="0"/>
        <pt x="43" y="-126" on="1"/>
        <pt x="43" y="-112" on="0"/>
        <pt x="62" y="-91" on="0"/>
        <pt x="77" y="-91" on="1"/>
        <pt x="91" y="-91" on="0"/>
        <pt x="110" y="-112" on="0"/>
        <pt x="110" y="-126" on="1"/>
        <pt x="110" y="-140" on="0"/>
        <pt x="91" y="-160" on="0"/>
      </contour>
      <contour>
        <pt x="0" y="-275" on="1"/>
        <pt x="-15" y="-275" on="0"/>
        <pt x="-34" y="-255" on="0"/>
        <pt x="-34" y="-241" on="1"/>
        <pt x="-34" y="-227" on="0"/>
        <pt x="-15" y="-206" on="0"/>
        <pt x="0" y="-206" on="1"/>
        <pt x="14" y="-206" on="0"/>
        <pt x="33" y="-227" on="0"/>
        <pt x="33" y="-241" on="1"/>
        <pt x="33" y="-255" on="0"/>
        <pt x="14" y="-275" on="0"/>
      </contour>
    </TTGlyph>
    <TTGlyph name="uni05B7" xMin="-117" yMin="-144" xMax="119" yMax="-99">
      <contour>
        <pt x="-117" y="-144" on="1"/>
        <pt x="-117" y="-99" on="1"/>
        <pt x="119" y="-99" on="1"/>
        <pt x="119" y="-144" on="1"/>
      </contour>
    </TTGlyph>
    <TTGlyph name="uni05B8" xMin="-117" yMin="-252" xMax="119" yMax="-99">
      <contour>
        <pt x="-117" y="-144" on="1"/>
        <pt x="-117" y="-99" on="1"/>
        <pt x="119" y="-99" on="1"/>
        <pt x="119" y="-144" on="1"/>
        <pt x="21" y="-144" on="1"/>
        <pt x="24" y="-252" on="1"/>
        <pt x="-23" y="-252" on="1"/>
        <pt x="-20" y="-144" on="1"/>
      </contour>
    </TTGlyph>
    <TTGlyph name="uni05B8.narrow" xMin="-90" yMin="-252" xMax="92" yMax="-99">
      <contour>
        <pt x="-90" y="-144" on="1"/>
        <pt x="-90" y="-99" on="1"/>
        <pt x="92" y="-99" on="1"/>
        <pt x="92" y="-144" on="1"/>
        <pt x="21" y="-144" on="1"/>
        <pt x="24" y="-252" on="1"/>
        <pt x="-23" y="-252" on="1"/>
        <pt x="-20" y="-144" on="1"/>
      </contour>
    </TTGlyph>
    <TTGlyph name="uni05B9" xMin="-71" yMin="636" xMax="-4" yMax="704">
      <contour>
        <pt x="-37" y="636" on="1"/>
        <pt x="-52" y="636" on="0"/>
        <pt x="-71" y="656" on="0"/>
        <pt x="-71" y="670" on="1"/>
        <pt x="-71" y="684" on="0"/>
        <pt x="-52" y="704" on="0"/>
        <pt x="-37" y="704" on="1"/>
        <pt x="-23" y="704" on="0"/>
        <pt x="-4" y="684" on="0"/>
        <pt x="-4" y="670" on="1"/>
        <pt x="-4" y="656" on="0"/>
        <pt x="-23" y="636" on="0"/>
      </contour>
    </TTGlyph>
    <TTGlyph name="uni05BA" xMin="-71" yMin="636" xMax="-4" yMax="704">
      <contour>
        <pt x="-37" y="636" on="1"/>
        <pt x="-52" y="636" on="0"/>
        <pt x="-71" y="656" on="0"/>
        <pt x="-71" y="670" on="1"/>
        <pt x="-71" y="684" on="0"/>
        <pt x="-52" y="704" on="0"/>
        <pt x="-37" y="704" on="1"/>
        <pt x="-23" y="704" on="0"/>
        <pt x="-4" y="684" on="0"/>
        <pt x="-4" y="670" on="1"/>
        <pt x="-4" y="656" on="0"/>
        <pt x="-23" y="636" on="0"/>
      </contour>
    </TTGlyph>
    <TTGlyph name="uni05BB" xMin="-34" yMin="-356" xMax="167" yMax="-91">
      <contour>
        <pt x="0" y="-160" on="1"/>
        <pt x="-15" y="-160" on="0"/>
        <pt x="-34" y="-140" on="0"/>
        <pt x="-34" y="-126" on="1"/>
        <pt x="-34" y="-112" on="0"/>
        <pt x="-15" y="-91" on="0"/>
        <pt x="0" y="-91" on="1"/>
        <pt x="14" y="-91" on="0"/>
        <pt x="33" y="-112" on="0"/>
        <pt x="33" y="-126" on="1"/>
        <pt x="33" y="-140" on="0"/>
        <pt x="14" y="-160" on="0"/>
      </contour>
      <contour>
        <pt x="67" y="-258" on="1"/>
        <pt x="52" y="-258" on="0"/>
        <pt x="33" y="-238" on="0"/>
        <pt x="33" y="-224" on="1"/>
        <pt x="33" y="-210" on="0"/>
        <pt x="52" y="-189" on="0"/>
        <pt x="67" y="-189" on="1"/>
        <pt x="81" y="-189" on="0"/>
        <pt x="100" y="-210" on="0"/>
        <pt x="100" y="-224" on="1"/>
        <pt x="100" y="-238" on="0"/>
        <pt x="81" y="-258" on="0"/>
      </contour>
      <contour>
        <pt x="134" y="-356" on="1"/>
        <pt x="119" y="-356" on="0"/>
        <pt x="100" y="-336" on="0"/>
        <pt x="100" y="-322" on="1"/>
        <pt x="100" y="-308" on="0"/>
        <pt x="119" y="-287" on="0"/>
        <pt x="134" y="-287" on="1"/>
        <pt x="148" y="-287" on="0"/>
        <pt x="167" y="-308" on="0"/>
        <pt x="167" y="-322" on="1"/>
        <pt x="167" y="-336" on="0"/>
        <pt x="148" y="-356" on="0"/>
      </contour>
    </TTGlyph>
    <TTGlyph name="uni05BC" xMin="10" yMin="176" xMax="85" yMax="252">
      <contour>
        <pt x="48" y="176" on="1"/>
        <pt x="32" y="176" on="0"/>
        <pt x="10" y="198" on="0"/>
        <pt x="10" y="214" on="1"/>
        <pt x="10" y="230" on="0"/>
        <pt x="32" y="252" on="0"/>
        <pt x="48" y="252" on="1"/>
        <pt x="63" y="252" on="0"/>
        <pt x="85" y="230" on="0"/>
        <pt x="85" y="214" on="1"/>
        <pt x="85" y="198" on="0"/>
        <pt x="63" y="176" on="0"/>
      </contour>
    </TTGlyph>
    <TTGlyph name="uni05BE" xMin="58" yMin="498" xMax="318" yMax="556">
      <contour>
        <pt x="58" y="556" on="1"/>
        <pt x="318" y="556" on="1"/>
        <pt x="318" y="498" on="1"/>
        <pt x="58" y="498" on="1"/>
      </contour>
    </TTGlyph>
    <TTGlyph name="uni05BF" xMin="-117" yMin="641" xMax="119" yMax="686">
      <contour>
        <pt x="-117" y="641" on="1"/>
        <pt x="-117" y="686" on="1"/>
        <pt x="119" y="686" on="1"/>
        <pt x="119" y="641" on="1"/>
      </contour>
    </TTGlyph>
    <TTGlyph name="uni05C1" xMin="-106" yMin="636" xMax="-39" yMax="704">
      <contour>
        <pt x="-72" y="636" on="1"/>
        <pt x="-87" y="636" on="0"/>
        <pt x="-106" y="656" on="0"/>
        <pt x="-106" y="670" on="1"/>
        <pt x="-106" y="684" on="0"/>
        <pt x="-87" y="704" on="0"/>
        <pt x="-72" y="704" on="1"/>
        <pt x="-58" y="704" on="0"/>
        <pt x="-39" y="684" on="0"/>
        <pt x="-39" y="670" on="1"/>
        <pt x="-39" y="656" on="0"/>
        <pt x="-58" y="636" on="0"/>
      </contour>
    </TTGlyph>
    <TTGlyph name="uni05C2" xMin="55" yMin="636" xMax="122" yMax="704">
      <contour>
        <pt x="89" y="636" on="1"/>
        <pt x="74" y="636" on="0"/>
        <pt x="55" y="656" on="0"/>
        <pt x="55" y="670" on="1"/>
        <pt x="55" y="684" on="0"/>
        <pt x="74" y="704" on="0"/>
        <pt x="89" y="704" on="1"/>
        <pt x="103" y="704" on="0"/>
        <pt x="122" y="684" on="0"/>
        <pt x="122" y="670" on="1"/>
        <pt x="122" y="656" on="0"/>
        <pt x="103" y="636" on="0"/>
      </contour>
    </TTGlyph>
    <TTGlyph name="uni05D0" xMin="62" yMin="-11" xMax="599" yMax="568">
      <contour>
        <pt x="88" y="0" on="1"/>
        <pt x="88" y="87" on="0"/>
        <pt x="101" y="239" on="0"/>
        <pt x="142" y="367" on="0"/>
        <pt x="183" y="419" on="1"/>
        <pt x="156" y="444" on="0"/>
        <pt x="96" y="498" on="0"/>
        <pt x="62" y="528" on="1"/>
        <pt x="100" y="568" on="1"/>
        <pt x="159" y="515" on="0"/>
        <pt x="255" y="429" on="0"/>
        <pt x="336" y="349" on="0"/>
        <pt x="412" y="266" on="0"/>
        <pt x="453" y="216" on="1"/>
        <pt x="482" y="270" on="0"/>
        <pt x="509" y="375" on="0"/>
        <pt x="518" y="489" on="0"/>
        <pt x="518" y="556" on="1"/>
        <pt x="573" y="556" on="1"/>
        <pt x="573" y="475" on="0"/>
        <pt x="562" y="349" on="0"/>
        <pt x="524" y="236" on="0"/>
        <pt x="485" y="175" on="1"/>
        <pt x="535" y="110" on="0"/>
        <pt x="599" y="19" on="1"/>
        <pt x="552" y="-11" on="1"/>
        <pt x="504" y="58" on="0"/>
        <pt x="422" y="166" on="0"/>
        <pt x="346" y="256" on="0"/>
        <pt x="266" y="341" on="0"/>
        <pt x="219" y="385" on="1"/>
        <pt x="170" y="314" on="0"/>
        <pt x="144" y="119" on="0"/>
        <pt x="144" y="0" on="1"/>
      </contour>
    </TTGlyph>
    <TTGlyph name="uni05D0.forDagesh" xMin="62" yMin="-11" xMax="599" yMax="568">
      <contour>
        <pt x="88" y="0" on="1"/>
        <pt x="88" y="87" on="0"/>
        <pt x="101" y="239" on="0"/>
        <pt x="142" y="367" on="0"/>
        <pt x="183" y="419" on="1"/>
        <pt x="156" y="444" on="0"/>
        <pt x="96" y="498" on="0"/>
        <pt x="62" y="528" on="1"/>
        <pt x="100" y="568" on="1"/>
        <pt x="159" y="515" on="0"/>
        <pt x="255" y="429" on="0"/>
        <pt x="336" y="349" on="0"/>
        <pt x="412" y="266" on="0"/>
        <pt x="453" y="216" on="1"/>
        <pt x="482" y="270" on="0"/>
        <pt x="509" y="375" on="0"/>
        <pt x="518" y="489" on="0"/>
        <pt x="518" y="556" on="1"/>
        <pt x="573" y="556" on="1"/>
        <pt x="573" y="475" on="0"/>
        <pt x="562" y="349" on="0"/>
        <pt x="524" y="236" on="0"/>
        <pt x="485" y="175" on="1"/>
        <pt x="535" y="110" on="0"/>
        <pt x="599" y="19" on="1"/>
        <pt x="552" y="-11" on="1"/>
        <pt x="504" y="58" on="0"/>
        <pt x="422" y="166" on="0"/>
        <pt x="346" y="256" on="0"/>
        <pt x="266" y="341" on="0"/>
        <pt x="219" y="385" on="1"/>
        <pt x="170" y="314" on="0"/>
        <pt x="144" y="119" on="0"/>
        <pt x="144" y="0" on="1"/>
      </contour>
    </TTGlyph>
    <TTGlyph name="uni05D1" xMin="57" yMin="0" xMax="520" yMax="557">
      <contour>
        <pt x="57" y="0" on="1"/>
        <pt x="57" y="56" on="1"/>
        <pt x="396" y="56" on="1"/>
        <pt x="396" y="309" on="1"/>
        <pt x="396" y="414" on="0"/>
        <pt x="319" y="501" on="0"/>
        <pt x="223" y="501" on="1"/>
        <pt x="57" y="501" on="1"/>
        <pt x="57" y="557" on="1"/>
        <pt x="223" y="557" on="1"/>
        <pt x="347" y="557" on="0"/>
        <pt x="451" y="432" on="0"/>
        <pt x="451" y="309" on="1"/>
        <pt x="451" y="56" on="1"/>
        <pt x="520" y="56" on="1"/>
        <pt x="520" y="0" on="1"/>
      </contour>
    </TTGlyph>
    <TTGlyph name="uni05D2" xMin="45" yMin="-9" xMax="295" yMax="562">
      <contour>
        <pt x="53" y="-9" on="1"/>
        <pt x="45" y="51" on="1"/>
        <pt x="104" y="68" on="0"/>
        <pt x="199" y="159" on="0"/>
        <pt x="228" y="221" on="1"/>
        <pt x="225" y="277" on="1"/>
        <pt x="222" y="343" on="0"/>
        <pt x="206" y="427" on="0"/>
        <pt x="175" y="476" on="0"/>
        <pt x="121" y="501" on="0"/>
        <pt x="79" y="508" on="1"/>
        <pt x="87" y="562" on="1"/>
        <pt x="156" y="552" on="0"/>
        <pt x="238" y="497" on="0"/>
        <pt x="277" y="385" on="0"/>
        <pt x="281" y="290" on="1"/>
        <pt x="295" y="2" on="1"/>
        <pt x="239" y="-1" on="1"/>
        <pt x="231" y="151" on="1"/>
        <pt x="206" y="99" on="0"/>
        <pt x="116" y="10" on="0"/>
      </contour>
    </TTGlyph>
    <TTGlyph name="uni05D3" xMin="41" yMin="1" xMax="476" yMax="557">
      <contour>
        <pt x="356" y="1" on="1"/>
        <pt x="356" y="501" on="1"/>
        <pt x="41" y="501" on="1"/>
        <pt x="41" y="557" on="1"/>
        <pt x="476" y="557" on="1"/>
        <pt x="476" y="501" on="1"/>
        <pt x="411" y="501" on="1"/>
        <pt x="411" y="1" on="1"/>
      </contour>
    </TTGlyph>
    <TTGlyph name="uni05D4" xMin="77" yMin="0" xMax="536" yMax="556">
      <contour>
        <pt x="480" y="0" on="1"/>
        <pt x="480" y="304" on="1"/>
        <pt x="480" y="376" on="0"/>
        <pt x="448" y="462" on="0"/>
        <pt x="374" y="500" on="0"/>
        <pt x="310" y="500" on="1"/>
        <pt x="77" y="500" on="1"/>
        <pt x="77" y="556" on="1"/>
        <pt x="310" y="556" on="1"/>
        <pt x="433" y="556" on="0"/>
        <pt x="536" y="430" on="0"/>
        <pt x="536" y="304" on="1"/>
        <pt x="535" y="0" on="1"/>
      </contour>
      <contour>
        <pt x="81" y="0" on="1"/>
        <pt x="81" y="345" on="1"/>
        <pt x="137" y="345" on="1"/>
        <pt x="137" y="0" on="1"/>
      </contour>
    </TTGlyph>
    <TTGlyph name="uni05D5" xMin="51" yMin="0" xMax="223" yMax="562">
      <contour>
        <pt x="168" y="0" on="1"/>
        <pt x="168" y="347" on="1"/>
        <pt x="168" y="425" on="0"/>
        <pt x="111" y="494" on="0"/>
        <pt x="51" y="506" on="1"/>
        <pt x="59" y="562" on="1"/>
        <pt x="148" y="550" on="0"/>
        <pt x="223" y="442" on="0"/>
        <pt x="223" y="347" on="1"/>
        <pt x="223" y="0" on="1"/>
      </contour>
    </TTGlyph>
    <TTGlyph name="uni05D6" xMin="56" yMin="-14" xMax="303" yMax="557">
      <contour>
        <pt x="203" y="-14" on="1"/>
        <pt x="173" y="50" on="0"/>
        <pt x="137" y="210" on="0"/>
        <pt x="136" y="296" on="1"/>
        <pt x="135" y="348" on="0"/>
        <pt x="154" y="452" on="0"/>
        <pt x="173" y="501" on="1"/>
        <pt x="56" y="501" on="1"/>
        <pt x="56" y="557" on="1"/>
        <pt x="303" y="557" on="1"/>
        <pt x="303" y="501" on="1"/>
        <pt x="220" y="501" on="1"/>
        <pt x="202" y="460" on="0"/>
        <pt x="190" y="359" on="0"/>
        <pt x="192" y="302" on="1"/>
        <pt x="193" y="216" on="0"/>
        <pt x="227" y="71" on="0"/>
        <pt x="252" y="12" on="1"/>
      </contour>
    </TTGlyph>
    <TTGlyph name="uni05D7" xMin="77" yMin="0" xMax="543" yMax="557">
      <contour>
        <pt x="77" y="0" on="1"/>
        <pt x="77" y="557" on="1"/>
        <pt x="317" y="557" on="1"/>
        <pt x="440" y="557" on="0"/>
        <pt x="543" y="433" on="0"/>
        <pt x="543" y="309" on="1"/>
        <pt x="543" y="0" on="1"/>
        <pt x="488" y="0" on="1"/>
        <pt x="488" y="309" on="1"/>
        <pt x="488" y="414" on="0"/>
        <pt x="413" y="502" on="0"/>
        <pt x="317" y="502" on="1"/>
        <pt x="133" y="502" on="1"/>
        <pt x="133" y="0" on="1"/>
      </contour>
    </TTGlyph>
    <TTGlyph name="uni05D8" xMin="77" yMin="-11" xMax="594" yMax="562">
      <contour>
        <pt x="322" y="-11" on="1"/>
        <pt x="201" y="-11" on="0"/>
        <pt x="77" y="152" on="0"/>
        <pt x="77" y="323" on="1"/>
        <pt x="78" y="556" on="1"/>
        <pt x="134" y="556" on="1"/>
        <pt x="133" y="323" on="1"/>
        <pt x="132" y="193" on="0"/>
        <pt x="230" y="45" on="0"/>
        <pt x="322" y="45" on="1"/>
        <pt x="429" y="45" on="0"/>
        <pt x="539" y="174" on="0"/>
        <pt x="539" y="287" on="1"/>
        <pt x="539" y="400" on="0"/>
        <pt x="462" y="508" on="0"/>
        <pt x="394" y="508" on="1"/>
        <pt x="365" y="508" on="0"/>
        <pt x="312" y="489" on="0"/>
        <pt x="284" y="473" on="1"/>
        <pt x="266" y="521" on="1"/>
        <pt x="294" y="537" on="0"/>
        <pt x="365" y="562" on="0"/>
        <pt x="394" y="562" on="1"/>
        <pt x="493" y="562" on="0"/>
        <pt x="594" y="421" on="0"/>
        <pt x="594" y="287" on="1"/>
        <pt x="594" y="195" on="0"/>
        <pt x="529" y="61" on="0"/>
        <pt x="407" y="-11" on="0"/>
      </contour>
    </TTGlyph>
    <TTGlyph name="uni05D9" xMin="49" yMin="205" xMax="271" yMax="561">
      <contour>
        <pt x="239" y="205" on="1"/>
        <pt x="185" y="215" on="1"/>
        <pt x="200" y="278" on="0"/>
        <pt x="214" y="351" on="0"/>
        <pt x="214" y="381" on="1"/>
        <pt x="214" y="437" on="0"/>
        <pt x="134" y="506" on="0"/>
        <pt x="49" y="506" on="1"/>
        <pt x="55" y="561" on="1"/>
        <pt x="165" y="561" on="0"/>
        <pt x="271" y="460" on="0"/>
        <pt x="270" y="380" on="1"/>
        <pt x="269" y="346" on="0"/>
        <pt x="254" y="267" on="0"/>
      </contour>
    </TTGlyph>
    <TTGlyph name="uni05DA" xMin="62" yMin="-151" xMax="493" yMax="556">
      <contour>
        <pt x="372" y="-151" on="1"/>
        <pt x="372" y="501" on="1"/>
        <pt x="62" y="501" on="1"/>
        <pt x="62" y="556" on="1"/>
        <pt x="493" y="556" on="1"/>
        <pt x="493" y="501" on="1"/>
        <pt x="428" y="501" on="1"/>
        <pt x="428" y="-151" on="1"/>
      </contour>
    </TTGlyph>
    <TTGlyph name="uni05DB" xMin="56" yMin="0" xMax="454" yMax="557">
      <contour>
        <pt x="56" y="0" on="1"/>
        <pt x="56" y="56" on="1"/>
        <pt x="204" y="56" on="1"/>
        <pt x="309" y="56" on="0"/>
        <pt x="398" y="168" on="0"/>
        <pt x="398" y="278" on="1"/>
        <pt x="398" y="360" on="0"/>
        <pt x="350" y="458" on="0"/>
        <pt x="246" y="502" on="0"/>
        <pt x="162" y="502" on="1"/>
        <pt x="56" y="502" on="1"/>
        <pt x="56" y="557" on="1"/>
        <pt x="162" y="557" on="1"/>
        <pt x="313" y="557" on="0"/>
        <pt x="454" y="423" on="0"/>
        <pt x="454" y="278" on="1"/>
        <pt x="454" y="144" on="0"/>
        <pt x="333" y="0" on="0"/>
        <pt x="204" y="0" on="1"/>
      </contour>
    </TTGlyph>
    <TTGlyph name="uni05DC" xMin="58" yMin="-13" xMax="479" yMax="730">
      <contour>
        <pt x="183" y="-13" on="1"/>
        <pt x="169" y="40" on="1"/>
        <pt x="289" y="83" on="0"/>
        <pt x="424" y="231" on="0"/>
        <pt x="424" y="336" on="1"/>
        <pt x="424" y="423" on="0"/>
        <pt x="326" y="501" on="0"/>
        <pt x="234" y="502" on="1"/>
        <pt x="59" y="500" on="1"/>
        <pt x="58" y="730" on="1"/>
        <pt x="114" y="730" on="1"/>
        <pt x="113" y="556" on="1"/>
        <pt x="255" y="557" on="1"/>
        <pt x="318" y="557" on="0"/>
        <pt x="420" y="508" on="0"/>
        <pt x="479" y="417" on="0"/>
        <pt x="479" y="352" on="1"/>
        <pt x="479" y="220" on="0"/>
        <pt x="327" y="41" on="0"/>
      </contour>
    </TTGlyph>
    <TTGlyph name="uni05DD" xMin="77" yMin="0" xMax="549" yMax="556">
      <contour>
        <pt x="77" y="0" on="1"/>
        <pt x="77" y="556" on="1"/>
        <pt x="330" y="556" on="1"/>
        <pt x="432" y="555" on="0"/>
        <pt x="549" y="443" on="0"/>
        <pt x="549" y="344" on="1"/>
        <pt x="549" y="0" on="1"/>
      </contour>
      <contour>
        <pt x="133" y="56" on="1"/>
        <pt x="494" y="56" on="1"/>
        <pt x="494" y="344" on="1"/>
        <pt x="494" y="419" on="0"/>
        <pt x="410" y="500" on="0"/>
        <pt x="330" y="500" on="1"/>
        <pt x="133" y="500" on="1"/>
      </contour>
    </TTGlyph>
    <TTGlyph name="uni05DE" xMin="56" yMin="-7" xMax="620" yMax="566">
      <contour>
        <pt x="380" y="-7" on="1"/>
        <pt x="362" y="-7" on="0"/>
        <pt x="328" y="0" on="0"/>
        <pt x="311" y="4" on="1"/>
        <pt x="321" y="60" on="1"/>
        <pt x="337" y="56" on="0"/>
        <pt x="369" y="51" on="0"/>
        <pt x="385" y="51" on="1"/>
        <pt x="443" y="51" on="0"/>
        <pt x="523" y="111" on="0"/>
        <pt x="564" y="209" on="0"/>
        <pt x="564" y="267" on="1"/>
        <pt x="564" y="380" on="0"/>
        <pt x="475" y="511" on="0"/>
        <pt x="382" y="511" on="1"/>
        <pt x="333" y="511" on="0"/>
        <pt x="262" y="459" on="0"/>
        <pt x="214" y="371" on="0"/>
        <pt x="182" y="261" on="0"/>
        <pt x="161" y="141" on="0"/>
        <pt x="155" y="83" on="1"/>
        <pt x="145" y="0" on="1"/>
        <pt x="91" y="0" on="1"/>
        <pt x="102" y="94" on="1"/>
        <pt x="111" y="177" on="0"/>
        <pt x="146" y="346" on="0"/>
        <pt x="178" y="414" on="1"/>
        <pt x="153" y="441" on="0"/>
        <pt x="94" y="493" on="0"/>
        <pt x="56" y="518" on="1"/>
        <pt x="85" y="566" on="1"/>
        <pt x="125" y="539" on="0"/>
        <pt x="181" y="484" on="0"/>
        <pt x="202" y="459" on="1"/>
        <pt x="233" y="508" on="0"/>
        <pt x="321" y="566" on="0"/>
        <pt x="382" y="566" on="1"/>
        <pt x="462" y="566" on="0"/>
        <pt x="568" y="491" on="0"/>
        <pt x="620" y="356" on="0"/>
        <pt x="620" y="267" on="1"/>
        <pt x="620" y="190" on="0"/>
        <pt x="565" y="66" on="0"/>
        <pt x="458" y="-6" on="0"/>
      </contour>
    </TTGlyph>
    <TTGlyph name="uni05DF" xMin="57" yMin="-151" xMax="221" yMax="560">
      <contour>
        <pt x="165" y="-151" on="1"/>
        <pt x="165" y="342" on="1"/>
        <pt x="165" y="420" on="0"/>
        <pt x="113" y="489" on="0"/>
        <pt x="57" y="505" on="1"/>
        <pt x="75" y="560" on="1"/>
        <pt x="149" y="538" on="0"/>
        <pt x="221" y="436" on="0"/>
        <pt x="221" y="342" on="1"/>
        <pt x="221" y="-151" on="1"/>
      </contour>
    </TTGlyph>
    <TTGlyph name="uni05E0" xMin="59" yMin="0" xMax="295" yMax="562">
      <contour>
        <pt x="59" y="0" on="1"/>
        <pt x="59" y="56" on="1"/>
        <pt x="240" y="56" on="1"/>
        <pt x="240" y="252" on="1"/>
        <pt x="240" y="331" on="0"/>
        <pt x="212" y="436" on="0"/>
        <pt x="143" y="495" on="0"/>
        <pt x="80" y="505" on="1"/>
        <pt x="90" y="562" on="1"/>
        <pt x="168" y="549" on="0"/>
        <pt x="258" y="473" on="0"/>
        <pt x="295" y="345" on="0"/>
        <pt x="295" y="252" on="1"/>
        <pt x="295" y="0" on="1"/>
      </contour>
    </TTGlyph>
    <TTGlyph name="uni05E1" xMin="63" yMin="-9" xMax="602" yMax="557">
      <contour>
        <pt x="334" y="-9" on="1"/>
        <pt x="275" y="-9" on="0"/>
        <pt x="182" y="42" on="0"/>
        <pt x="117" y="129" on="0"/>
        <pt x="83" y="238" on="0"/>
        <pt x="83" y="296" on="1"/>
        <pt x="83" y="401" on="0"/>
        <pt x="139" y="502" on="1"/>
        <pt x="63" y="502" on="1"/>
        <pt x="63" y="557" on="1"/>
        <pt x="340" y="557" on="1"/>
        <pt x="433" y="557" on="0"/>
        <pt x="548" y="485" on="0"/>
        <pt x="602" y="365" on="0"/>
        <pt x="602" y="295" on="1"/>
        <pt x="602" y="207" on="0"/>
        <pt x="536" y="70" on="0"/>
        <pt x="415" y="-9" on="0"/>
      </contour>
      <contour>
        <pt x="139" y="296" on="1"/>
        <pt x="139" y="250" on="0"/>
        <pt x="165" y="162" on="0"/>
        <pt x="215" y="90" on="0"/>
        <pt x="287" y="47" on="0"/>
        <pt x="334" y="47" on="1"/>
        <pt x="401" y="47" on="0"/>
        <pt x="496" y="112" on="0"/>
        <pt x="546" y="224" on="0"/>
        <pt x="546" y="295" on="1"/>
        <pt x="546" y="351" on="0"/>
        <pt x="506" y="445" on="0"/>
        <pt x="416" y="502" on="0"/>
        <pt x="340" y="502" on="1"/>
        <pt x="194" y="502" on="1"/>
        <pt x="163" y="449" on="0"/>
        <pt x="139" y="351" on="0"/>
      </contour>
    </TTGlyph>
    <TTGlyph name="uni05E2" xMin="51" yMin="-66" xMax="498" yMax="566">
      <contour>
        <pt x="69" y="-66" on="1"/>
        <pt x="54" y="-12" on="1"/>
        <pt x="100" y="2" on="0"/>
        <pt x="183" y="33" on="0"/>
        <pt x="218" y="51" on="1"/>
        <pt x="195" y="133" on="0"/>
        <pt x="156" y="264" on="0"/>
        <pt x="119" y="375" on="0"/>
        <pt x="77" y="484" on="0"/>
        <pt x="51" y="545" on="1"/>
        <pt x="103" y="566" on="1"/>
        <pt x="128" y="507" on="0"/>
        <pt x="167" y="398" on="0"/>
        <pt x="203" y="285" on="0"/>
        <pt x="241" y="155" on="0"/>
        <pt x="263" y="76" on="1"/>
        <pt x="334" y="120" on="0"/>
        <pt x="373" y="178" on="1"/>
        <pt x="418" y="244" on="0"/>
        <pt x="442" y="427" on="0"/>
        <pt x="441" y="556" on="1"/>
        <pt x="497" y="557" on="1"/>
        <pt x="498" y="418" on="0"/>
        <pt x="466" y="221" on="0"/>
        <pt x="418" y="148" on="1"/>
        <pt x="368" y="73" on="0"/>
        <pt x="193" y="-29" on="0"/>
      </contour>
    </TTGlyph>
    <TTGlyph name="uni05E3" xMin="56" yMin="-151" xMax="503" yMax="564">
      <contour>
        <pt x="448" y="-151" on="1"/>
        <pt x="448" y="286" on="1"/>
        <pt x="448" y="397" on="0"/>
        <pt x="355" y="508" on="0"/>
        <pt x="257" y="508" on="1"/>
        <pt x="190" y="508" on="0"/>
        <pt x="112" y="423" on="0"/>
        <pt x="112" y="353" on="1"/>
        <pt x="112" y="293" on="0"/>
        <pt x="192" y="228" on="0"/>
        <pt x="259" y="228" on="1"/>
        <pt x="250" y="172" on="1"/>
        <pt x="192" y="172" on="0"/>
        <pt x="105" y="218" on="0"/>
        <pt x="56" y="299" on="0"/>
        <pt x="56" y="353" on="1"/>
        <pt x="56" y="416" on="0"/>
        <pt x="108" y="511" on="0"/>
        <pt x="199" y="564" on="0"/>
        <pt x="257" y="564" on="1"/>
        <pt x="379" y="564" on="0"/>
        <pt x="503" y="420" on="0"/>
        <pt x="503" y="286" on="1"/>
        <pt x="503" y="-151" on="1"/>
      </contour>
    </TTGlyph>
    <TTGlyph name="uni05E4" xMin="56" yMin="-7" xMax="534" yMax="562">
      <contour>
        <pt x="287" y="-7" on="1"/>
        <pt x="237" y="-7" on="0"/>
        <pt x="135" y="11" on="0"/>
        <pt x="85" y="36" on="1"/>
        <pt x="103" y="88" on="1"/>
        <pt x="148" y="66" on="0"/>
        <pt x="236" y="49" on="0"/>
        <pt x="287" y="49" on="1"/>
        <pt x="348" y="49" on="0"/>
        <pt x="434" y="112" on="0"/>
        <pt x="478" y="220" on="0"/>
        <pt x="478" y="285" on="1"/>
        <pt x="478" y="349" on="0"/>
        <pt x="429" y="449" on="0"/>
        <pt x="338" y="507" on="0"/>
        <pt x="275" y="507" on="1"/>
        <pt x="198" y="507" on="0"/>
        <pt x="112" y="442" on="0"/>
        <pt x="112" y="382" on="1"/>
        <pt x="112" y="331" on="0"/>
        <pt x="187" y="284" on="0"/>
        <pt x="243" y="284" on="1"/>
        <pt x="235" y="228" on="1"/>
        <pt x="185" y="228" on="0"/>
        <pt x="104" y="264" on="0"/>
        <pt x="56" y="333" on="0"/>
        <pt x="56" y="382" on="1"/>
        <pt x="56" y="466" on="0"/>
        <pt x="176" y="562" on="0"/>
        <pt x="275" y="562" on="1"/>
        <pt x="354" y="562" on="0"/>
        <pt x="470" y="489" on="0"/>
        <pt x="534" y="364" on="0"/>
        <pt x="534" y="285" on="1"/>
        <pt x="534" y="202" on="0"/>
        <pt x="473" y="70" on="0"/>
        <pt x="362" y="-7" on="0"/>
      </contour>
    </TTGlyph>
    <TTGlyph name="uni05E5" xMin="52" yMin="-151" xMax="418" yMax="568">
      <contour>
        <pt x="166" y="-151" on="1"/>
        <pt x="166" y="150" on="1"/>
        <pt x="166" y="228" on="0"/>
        <pt x="143" y="352" on="0"/>
        <pt x="93" y="471" on="0"/>
        <pt x="52" y="541" on="1"/>
        <pt x="101" y="568" on="1"/>
        <pt x="137" y="505" on="0"/>
        <pt x="185" y="398" on="0"/>
        <pt x="213" y="294" on="0"/>
        <pt x="219" y="235" on="1"/>
        <pt x="272" y="260" on="0"/>
        <pt x="335" y="355" on="0"/>
        <pt x="362" y="483" on="0"/>
        <pt x="362" y="556" on="1"/>
        <pt x="418" y="556" on="1"/>
        <pt x="418" y="465" on="0"/>
        <pt x="378" y="311" on="0"/>
        <pt x="292" y="201" on="0"/>
        <pt x="222" y="176" on="1"/>
        <pt x="222" y="164" on="0"/>
        <pt x="222" y="150" on="1"/>
        <pt x="222" y="-151" on="1"/>
      </contour>
    </TTGlyph>
    <TTGlyph name="uni05E6" xMin="41" yMin="0" xMax="499" yMax="568">
      <contour>
        <pt x="91" y="0" on="1"/>
        <pt x="91" y="56" on="1"/>
        <pt x="420" y="56" on="1"/>
        <pt x="413" y="81" on="0"/>
        <pt x="365" y="140" on="0"/>
        <pt x="303" y="202" on="0"/>
        <pt x="274" y="234" on="1"/>
        <pt x="236" y="277" on="0"/>
        <pt x="176" y="348" on="0"/>
        <pt x="124" y="415" on="0"/>
        <pt x="72" y="490" on="0"/>
        <pt x="41" y="538" on="1"/>
        <pt x="88" y="568" on="1"/>
        <pt x="122" y="513" on="0"/>
        <pt x="183" y="425" on="0"/>
        <pt x="255" y="337" on="0"/>
        <pt x="307" y="280" on="1"/>
        <pt x="367" y="325" on="0"/>
        <pt x="433" y="466" on="0"/>
        <pt x="445" y="560" on="1"/>
        <pt x="499" y="553" on="1"/>
        <pt x="487" y="447" on="0"/>
        <pt x="410" y="292" on="0"/>
        <pt x="340" y="245" on="1"/>
        <pt x="376" y="206" on="0"/>
        <pt x="441" y="133" on="0"/>
        <pt x="481" y="63" on="0"/>
        <pt x="481" y="28" on="1"/>
        <pt x="481" y="0" on="1"/>
      </contour>
    </TTGlyph>
    <TTGlyph name="uni05E7" xMin="77" yMin="-151" xMax="546" yMax="556">
      <contour>
        <pt x="288" y="-5" on="1"/>
        <pt x="270" y="48" on="1"/>
        <pt x="372" y="86" on="0"/>
        <pt x="490" y="234" on="0"/>
        <pt x="490" y="337" on="1"/>
        <pt x="490" y="419" on="0"/>
        <pt x="396" y="499" on="0"/>
        <pt x="316" y="499" on="1"/>
        <pt x="77" y="499" on="1"/>
        <pt x="77" y="556" on="1"/>
        <pt x="316" y="556" on="1"/>
        <pt x="422" y="556" on="0"/>
        <pt x="546" y="440" on="0"/>
        <pt x="546" y="337" on="1"/>
        <pt x="546" y="255" on="0"/>
        <pt x="481" y="121" on="0"/>
        <pt x="365" y="23" on="0"/>
      </contour>
      <contour>
        <pt x="88" y="-151" on="1"/>
        <pt x="88" y="348" on="1"/>
        <pt x="144" y="348" on="1"/>
        <pt x="144" y="-151" on="1"/>
      </contour>
    </TTGlyph>
    <TTGlyph name="uni05E8" xMin="46" yMin="0" xMax="458" yMax="556">
      <contour>
        <pt x="402" y="0" on="1"/>
        <pt x="402" y="348" on="1"/>
        <pt x="402" y="418" on="0"/>
        <pt x="317" y="500" on="0"/>
        <pt x="244" y="500" on="1"/>
        <pt x="46" y="500" on="1"/>
        <pt x="46" y="556" on="1"/>
        <pt x="244" y="556" on="1"/>
        <pt x="308" y="556" on="0"/>
        <pt x="404" y="504" on="0"/>
        <pt x="458" y="410" on="0"/>
        <pt x="458" y="348" on="1"/>
        <pt x="458" y="0" on="1"/>
      </contour>
    </TTGlyph>
    <TTGlyph name="uni05E9" xMin="61" yMin="-9" xMax="657" yMax="556">
      <contour>
        <pt x="349" y="-9" on="1"/>
        <pt x="279" y="-9" on="0"/>
        <pt x="180" y="56" on="0"/>
        <pt x="114" y="168" on="0"/>
        <pt x="76" y="313" on="0"/>
        <pt x="61" y="475" on="0"/>
        <pt x="61" y="556" on="1"/>
        <pt x="116" y="556" on="1"/>
        <pt x="116" y="467" on="0"/>
        <pt x="134" y="291" on="0"/>
        <pt x="158" y="219" on="1"/>
        <pt x="208" y="231" on="0"/>
        <pt x="281" y="303" on="0"/>
        <pt x="301" y="340" on="1"/>
        <pt x="323" y="382" on="0"/>
        <pt x="342" y="490" on="0"/>
        <pt x="342" y="556" on="1"/>
        <pt x="398" y="556" on="1"/>
        <pt x="398" y="483" on="0"/>
        <pt x="375" y="361" on="0"/>
        <pt x="348" y="311" on="1"/>
        <pt x="324" y="267" on="0"/>
        <pt x="233" y="190" on="0"/>
        <pt x="174" y="177" on="1"/>
        <pt x="201" y="118" on="0"/>
        <pt x="286" y="47" on="0"/>
        <pt x="349" y="47" on="1"/>
        <pt x="425" y="47" on="0"/>
        <pt x="519" y="124" on="0"/>
        <pt x="572" y="262" on="0"/>
        <pt x="596" y="447" on="0"/>
        <pt x="601" y="556" on="1"/>
        <pt x="657" y="556" on="1"/>
        <pt x="651" y="439" on="0"/>
        <pt x="623" y="236" on="0"/>
        <pt x="559" y="81" on="0"/>
        <pt x="442" y="-7" on="0"/>
      </contour>
    </TTGlyph>
    <TTGlyph name="uni05E9.forDagesh" xMin="59" yMin="-9" xMax="655" yMax="556">
      <contour>
        <pt x="347" y="-9" on="1"/>
        <pt x="277" y="-9" on="0"/>
        <pt x="178" y="56" on="0"/>
        <pt x="112" y="168" on="0"/>
        <pt x="75" y="313" on="0"/>
        <pt x="59" y="475" on="0"/>
        <pt x="59" y="556" on="1"/>
        <pt x="114" y="556" on="1"/>
        <pt x="114" y="467" on="0"/>
        <pt x="132" y="291" on="0"/>
        <pt x="156" y="219" on="1"/>
        <pt x="206" y="231" on="0"/>
        <pt x="279" y="303" on="0"/>
        <pt x="299" y="340" on="1"/>
        <pt x="321" y="382" on="0"/>
        <pt x="340" y="490" on="0"/>
        <pt x="340" y="556" on="1"/>
        <pt x="396" y="556" on="1"/>
        <pt x="396" y="483" on="0"/>
        <pt x="373" y="361" on="0"/>
        <pt x="346" y="311" on="1"/>
        <pt x="322" y="267" on="0"/>
        <pt x="232" y="190" on="0"/>
        <pt x="172" y="177" on="1"/>
        <pt x="199" y="118" on="0"/>
        <pt x="284" y="47" on="0"/>
        <pt x="347" y="47" on="1"/>
        <pt x="423" y="47" on="0"/>
        <pt x="518" y="124" on="0"/>
        <pt x="570" y="262" on="0"/>
        <pt x="594" y="447" on="0"/>
        <pt x="599" y="556" on="1"/>
        <pt x="655" y="556" on="1"/>
        <pt x="649" y="439" on="0"/>
        <pt x="621" y="236" on="0"/>
        <pt x="557" y="81" on="0"/>
        <pt x="441" y="-7" on="0"/>
      </contour>
    </TTGlyph>
    <TTGlyph name="uni05EA" xMin="63" yMin="0" xMax="575" yMax="557">
      <contour>
        <pt x="63" y="1" on="1"/>
        <pt x="63" y="56" on="1"/>
        <pt x="147" y="56" on="1"/>
        <pt x="139" y="116" on="0"/>
        <pt x="133" y="231" on="0"/>
        <pt x="135" y="286" on="1"/>
        <pt x="137" y="339" on="0"/>
        <pt x="156" y="445" on="0"/>
        <pt x="170" y="502" on="1"/>
        <pt x="82" y="502" on="1"/>
        <pt x="82" y="557" on="1"/>
        <pt x="349" y="557" on="1"/>
        <pt x="432" y="557" on="0"/>
        <pt x="531" y="494" on="0"/>
        <pt x="575" y="376" on="0"/>
        <pt x="575" y="294" on="1"/>
        <pt x="575" y="0" on="1"/>
        <pt x="519" y="0" on="1"/>
        <pt x="519" y="294" on="1"/>
        <pt x="519" y="400" on="0"/>
        <pt x="445" y="502" on="0"/>
        <pt x="349" y="502" on="1"/>
        <pt x="220" y="502" on="1"/>
        <pt x="207" y="443" on="0"/>
        <pt x="193" y="337" on="0"/>
        <pt x="190" y="284" on="1"/>
        <pt x="188" y="219" on="0"/>
        <pt x="198" y="86" on="0"/>
        <pt x="212" y="1" on="1"/>
      </contour>
    </TTGlyph>
    <TTGlyph name="uni05F3" xMin="39" yMin="364" xMax="176" yMax="599">
      <contour>
        <pt x="39" y="364" on="1"/>
        <pt x="111" y="599" on="1"/>
        <pt x="176" y="599" on="1"/>
        <pt x="91" y="364" on="1"/>
      </contour>
    </TTGlyph>
    <TTGlyph name="uni05F4" xMin="42" yMin="364" xMax="327" yMax="599">
      <contour>
        <pt x="190" y="364" on="1"/>
        <pt x="262" y="599" on="1"/>
        <pt x="327" y="599" on="1"/>
        <pt x="242" y="364" on="1"/>
      </contour>
      <contour>
        <pt x="42" y="364" on="1"/>
        <pt x="114" y="599" on="1"/>
        <pt x="178" y="599" on="1"/>
        <pt x="93" y="364" on="1"/>
      </contour>
    </TTGlyph>
    <TTGlyph name="uni20AA" xMin="82" yMin="0" xMax="648" yMax="556">
      <contour>
        <pt x="247" y="0" on="1"/>
        <pt x="247" y="369" on="1"/>
        <pt x="303" y="369" on="1"/>
        <pt x="303" y="56" on="1"/>
        <pt x="410" y="56" on="1"/>
        <pt x="511" y="56" on="0"/>
        <pt x="592" y="151" on="0"/>
        <pt x="592" y="258" on="1"/>
        <pt x="592" y="556" on="1"/>
        <pt x="648" y="556" on="1"/>
        <pt x="648" y="258" on="1"/>
        <pt x="648" y="130" on="0"/>
        <pt x="537" y="0" on="0"/>
        <pt x="410" y="0" on="1"/>
      </contour>
      <contour>
        <pt x="82" y="0" on="1"/>
        <pt x="82" y="556" on="1"/>
        <pt x="247" y="556" on="1"/>
        <pt x="369" y="556" on="0"/>
        <pt x="476" y="424" on="0"/>
        <pt x="476" y="298" on="1"/>
        <pt x="476" y="189" on="1"/>
        <pt x="420" y="189" on="1"/>
        <pt x="420" y="298" on="1"/>
        <pt x="420" y="406" on="0"/>
        <pt x="341" y="500" on="0"/>
        <pt x="247" y="500" on="1"/>
        <pt x="137" y="500" on="1"/>
        <pt x="137" y="0" on="1"/>
      </contour>
    </TTGlyph>
    <TTGlyph name="uni2196" xMin="88" yMin="125" xMax="520" yMax="556">
      <contour>
        <pt x="89" y="227" on="1"/>
        <pt x="88" y="556" on="1"/>
        <pt x="419" y="555" on="1"/>
        <pt x="419" y="500" on="1"/>
        <pt x="183" y="501" on="1"/>
        <pt x="520" y="165" on="1"/>
        <pt x="481" y="125" on="1"/>
        <pt x="144" y="462" on="1"/>
        <pt x="144" y="227" on="1"/>
      </contour>
    </TTGlyph>
    <TTGlyph name="uni2197" xMin="77" yMin="125" xMax="508" yMax="556">
      <contour>
        <pt x="116" y="125" on="1"/>
        <pt x="77" y="164" on="1"/>
        <pt x="413" y="501" on="1"/>
        <pt x="179" y="500" on="1"/>
        <pt x="179" y="555" on="1"/>
        <pt x="508" y="556" on="1"/>
        <pt x="508" y="226" on="1"/>
        <pt x="452" y="226" on="1"/>
        <pt x="452" y="461" on="1"/>
      </contour>
    </TTGlyph>
    <TTGlyph name="uni2198" xMin="77" yMin="0" xMax="509" yMax="431">
      <contour>
        <pt x="178" y="1" on="1"/>
        <pt x="178" y="56" on="1"/>
        <pt x="413" y="55" on="1"/>
        <pt x="77" y="392" on="1"/>
        <pt x="116" y="431" on="1"/>
        <pt x="453" y="94" on="1"/>
        <pt x="453" y="330" on="1"/>
        <pt x="508" y="330" on="1"/>
        <pt x="509" y="0" on="1"/>
      </contour>
    </TTGlyph>
    <TTGlyph name="uni2199" xMin="83" yMin="0" xMax="514" yMax="432">
      <contour>
        <pt x="83" y="0" on="1"/>
        <pt x="84" y="331" on="1"/>
        <pt x="139" y="331" on="1"/>
        <pt x="139" y="96" on="1"/>
        <pt x="475" y="432" on="1"/>
        <pt x="514" y="393" on="1"/>
        <pt x="177" y="55" on="1"/>
        <pt x="413" y="56" on="1"/>
        <pt x="413" y="1" on="1"/>
      </contour>
    </TTGlyph>
    <TTGlyph name="uniFB2A" xMin="61" yMin="-9" xMax="657" yMax="704">
      <component glyphName="uni05E9" x="0" y="0" flags="0x204"/>
      <component glyphName="uni05C1" x="695" y="0" flags="0x4"/>
    </TTGlyph>
    <TTGlyph name="uniFB2B" xMin="56" yMin="-9" xMax="657" yMax="704">
      <component glyphName="uni05E9" x="0" y="0" flags="0x204"/>
      <component glyphName="uni05C2" x="1" y="0" flags="0x4"/>
    </TTGlyph>
    <TTGlyph name="uniFB2C" xMin="59" yMin="-9" xMax="655" yMax="704">
      <component glyphName="uni05E9.forDagesh" x="0" y="0" flags="0x204"/>
      <component glyphName="uni05BC" x="398" y="60" flags="0x4"/>
      <component glyphName="uni05C1" x="693" y="0" flags="0x4"/>
    </TTGlyph>
    <TTGlyph name="uniFB2D" xMin="54" yMin="-9" xMax="655" yMax="704">
      <component glyphName="uni05E9.forDagesh" x="0" y="0" flags="0x204"/>
      <component glyphName="uni05BC" x="398" y="60" flags="0x4"/>
      <component glyphName="uni05C2" x="-1" y="0" flags="0x4"/>
    </TTGlyph>
    <TTGlyph name="uniFB2E" xMin="62" yMin="-144" xMax="599" yMax="568">
      <component glyphName="uni05D0" x="0" y="0" flags="0x204"/>
      <component glyphName="uni05B7" x="343" y="0" flags="0x4"/>
    </TTGlyph>
    <TTGlyph name="uniFB2F" xMin="62" yMin="-252" xMax="599" yMax="568">
      <component glyphName="uni05D0" x="0" y="0" flags="0x204"/>
      <component glyphName="uni05B8" x="343" y="0" flags="0x4"/>
    </TTGlyph>
    <TTGlyph name="uniFB30" xMin="62" yMin="-11" xMax="599" yMax="568">
      <component glyphName="uni05D0.forDagesh" x="0" y="0" flags="0x204"/>
      <component glyphName="uni05BC" x="229" y="-102" flags="0x4"/>
    </TTGlyph>
    <TTGlyph name="uniFB31" xMin="57" yMin="0" xMax="520" yMax="557">
      <component glyphName="uni05D1" x="0" y="0" flags="0x204"/>
      <component glyphName="uni05BC" x="167" y="60" flags="0x4"/>
    </TTGlyph>
    <TTGlyph name="uniFB32" xMin="45" yMin="-9" xMax="295" yMax="562">
      <component glyphName="uni05D2" x="0" y="0" flags="0x204"/>
      <component glyphName="uni05BC" x="65" y="69" flags="0x4"/>
    </TTGlyph>
    <TTGlyph name="uniFB33" xMin="41" yMin="1" xMax="476" yMax="557">
      <component glyphName="uni05D3" x="0" y="0" flags="0x204"/>
      <component glyphName="uni05BC" x="144" y="60" flags="0x4"/>
    </TTGlyph>
    <TTGlyph name="uniFB34" xMin="77" yMin="0" xMax="536" yMax="556">
      <component glyphName="uni05D4" x="0" y="0" flags="0x204"/>
      <component glyphName="uni05BC" x="258" y="60" flags="0x4"/>
    </TTGlyph>
    <TTGlyph name="uniFB35" xMin="37" yMin="0" xMax="223" yMax="562">
      <component glyphName="uni05D5" x="0" y="0" flags="0x204"/>
      <component glyphName="uni05BC" x="27" y="60" flags="0x4"/>
    </TTGlyph>
    <TTGlyph name="uniFB36" xMin="14" yMin="-14" xMax="303" yMax="557">
      <component glyphName="uni05D6" x="0" y="0" flags="0x204"/>
      <component glyphName="uni05BC" x="4" y="60" flags="0x4"/>
    </TTGlyph>
    <TTGlyph name="uniFB38" xMin="77" yMin="-11" xMax="594" yMax="562">
      <component glyphName="uni05D8" x="0" y="0" flags="0x204"/>
      <component glyphName="uni05BC" x="282" y="68" flags="0x4"/>
    </TTGlyph>
    <TTGlyph name="uniFB39" xMin="49" yMin="205" xMax="271" yMax="561">
      <component glyphName="uni05D9" x="0" y="0" flags="0x204"/>
      <component glyphName="uni05BC" x="51" y="124" flags="0x4"/>
    </TTGlyph>
    <TTGlyph name="uniFB3A" xMin="62" yMin="-151" xMax="493" yMax="556">
      <component glyphName="uni05DA" x="0" y="0" flags="0x204"/>
      <component glyphName="uni05BC" x="165" y="60" flags="0x4"/>
    </TTGlyph>
    <TTGlyph name="uniFB3B" xMin="56" yMin="0" xMax="454" yMax="557">
      <component glyphName="uni05DB" x="0" y="0" flags="0x204"/>
      <component glyphName="uni05BC" x="142" y="60" flags="0x4"/>
    </TTGlyph>
    <TTGlyph name="uniFB3C" xMin="58" yMin="-13" xMax="479" yMax="730">
      <component glyphName="uni05DC" x="0" y="0" flags="0x204"/>
      <component glyphName="uni05BC" x="172" y="75" flags="0x4"/>
    </TTGlyph>
    <TTGlyph name="uniFB3E" xMin="56" yMin="-7" xMax="620" yMax="566">
      <component glyphName="uni05DE" x="0" y="0" flags="0x204"/>
      <component glyphName="uni05BC" x="326" y="60" flags="0x4"/>
    </TTGlyph>
    <TTGlyph name="uniFB40" xMin="59" yMin="0" xMax="295" yMax="562">
      <component glyphName="uni05E0" x="0" y="0" flags="0x204"/>
      <component glyphName="uni05BC" x="75" y="60" flags="0x4"/>
    </TTGlyph>
    <TTGlyph name="uniFB41" xMin="63" yMin="-9" xMax="602" yMax="557">
      <component glyphName="uni05E1" x="0" y="0" flags="0x204"/>
      <component glyphName="uni05BC" x="292" y="72" flags="0x4"/>
    </TTGlyph>
    <TTGlyph name="uniFB43" xMin="56" yMin="-151" xMax="503" yMax="564">
      <component glyphName="uni05E3" x="0" y="0" flags="0x204"/>
      <component glyphName="uni05BC" x="296" y="3" flags="0x4"/>
    </TTGlyph>
    <TTGlyph name="uniFB44" xMin="56" yMin="-7" xMax="534" yMax="562">
      <component glyphName="uni05E4" x="0" y="0" flags="0x204"/>
      <component glyphName="uni05BC" x="302" y="60" flags="0x4"/>
    </TTGlyph>
    <TTGlyph name="uniFB46" xMin="41" yMin="0" xMax="499" yMax="568">
      <component glyphName="uni05E6" x="0" y="0" flags="0x204"/>
      <component glyphName="uni05BC" x="104" y="3" flags="0x4"/>
    </TTGlyph>
    <TTGlyph name="uniFB47" xMin="77" yMin="-151" xMax="546" yMax="556">
      <component glyphName="uni05E7" x="0" y="0" flags="0x204"/>
      <component glyphName="uni05BC" x="256" y="73" flags="0x4"/>
    </TTGlyph>
    <TTGlyph name="uniFB48" xMin="46" yMin="0" xMax="458" yMax="556">
      <component glyphName="uni05E8" x="0" y="0" flags="0x204"/>
      <component glyphName="uni05BC" x="167" y="60" flags="0x4"/>
    </TTGlyph>
    <TTGlyph name="uniFB49" xMin="59" yMin="-9" xMax="655" yMax="556">
      <component glyphName="uni05E9.forDagesh" x="0" y="0" flags="0x204"/>
      <component glyphName="uni05BC" x="398" y="60" flags="0x4"/>
    </TTGlyph>
    <TTGlyph name="uniFB4A" xMin="63" yMin="0" xMax="575" yMax="557">
      <component glyphName="uni05EA" x="0" y="0" flags="0x204"/>
      <component glyphName="uni05BC" x="306" y="60" flags="0x4"/>
    </TTGlyph>
    <TTGlyph name="uniFB4B" xMin="51" yMin="0" xMax="223" yMax="704">
      <component glyphName="uni05D5" x="0" y="0" flags="0x204"/>
      <component glyphName="uni05B9" x="160" y="0" flags="0x4"/>
    </TTGlyph>
    <TTGlyph name="zero" xMin="52" yMin="-11" xMax="488" yMax="613">
      <contour>
        <pt x="270" y="-11" on="1"/>
        <pt x="208" y="-11" on="0"/>
        <pt x="109" y="65" on="0"/>
        <pt x="52" y="205" on="0"/>
        <pt x="52" y="303" on="1"/>
        <pt x="52" y="401" on="0"/>
        <pt x="111" y="540" on="0"/>
        <pt x="210" y="613" on="0"/>
        <pt x="270" y="613" on="1"/>
        <pt x="331" y="613" on="0"/>
        <pt x="430" y="539" on="0"/>
        <pt x="488" y="400" on="0"/>
        <pt x="488" y="303" on="1"/>
        <pt x="488" y="204" on="0"/>
        <pt x="430" y="63" on="0"/>
        <pt x="331" y="-11" on="0"/>
      </contour>
      <contour>
        <pt x="270" y="45" on="1"/>
        <pt x="339" y="45" on="0"/>
        <pt x="432" y="179" on="0"/>
        <pt x="432" y="303" on="1"/>
        <pt x="432" y="385" on="0"/>
        <pt x="389" y="498" on="0"/>
        <pt x="315" y="558" on="0"/>
        <pt x="270" y="558" on="1"/>
        <pt x="225" y="558" on="0"/>
        <pt x="151" y="498" on="0"/>
        <pt x="108" y="384" on="0"/>
        <pt x="108" y="303" on="1"/>
        <pt x="108" y="219" on="0"/>
        <pt x="152" y="104" on="0"/>
        <pt x="225" y="45" on="0"/>
      </contour>
    </TTGlyph>
</ttFont>
